<svg xmlns="http://www.w3.org/2000/svg" xmlns:xlink="http://www.w3.org/1999/xlink" width="1728" zoomAndPan="magnify" viewBox="0 0 1296 1727.999927" height="2304" preserveAspectRatio="xMidYMid meet" version="1.0"><defs><g/></defs><g fill="#ff0000" fill-opacity="1"><g transform="translate(220.671325, 718.605116)"><g><path d="M 118.871094 -33.128906 L 138.355469 -52.613281 L 138.355469 -116.921875 L 118.871094 -136.40625 L 0.972656 -136.40625 L 0.972656 -105.230469 L 107.175781 -105.230469 L 107.175781 -64.304688 L 46.769531 -64.304688 L 46.769531 -95.484375 L 15.589844 -95.484375 L 15.589844 0 L 46.769531 0 L 46.769531 -33.128906 L 79.3125 -33.128906 C 89.054688 -22.019531 98.601562 -10.914062 108.542969 0 L 148.101562 0 C 138.160156 -10.914062 128.613281 -22.019531 118.871094 -33.128906 Z M 118.871094 -33.128906 "/></g></g></g><g fill="#ff0000" fill-opacity="1"><g transform="translate(391.570903, 718.605116)"><g><path d="M 142.253906 0 L 142.253906 -31.179688 L 40.921875 -31.179688 L 40.921875 -105.230469 L 115.945312 -105.230469 L 115.945312 -81.84375 L 50.664062 -81.84375 L 50.664062 -50.664062 L 127.640625 -50.664062 L 147.125 -70.152344 L 147.125 -116.921875 L 127.640625 -136.40625 L 29.230469 -136.40625 L 9.742188 -116.921875 L 9.742188 -19.488281 L 29.230469 0 Z M 142.253906 0 "/></g></g></g><g fill="#ff0000" fill-opacity="1"><g transform="translate(569.290841, 718.605116)"><g><path d="M 147.125 0 L 147.125 -116.921875 L 127.640625 -136.40625 L 14.613281 -136.40625 L 14.613281 -105.230469 L 115.945312 -105.230469 L 115.945312 -83.792969 L 29.230469 -83.792969 L 9.742188 -64.304688 L 9.742188 -19.488281 L 29.230469 0 L 106.203125 0 L 106.203125 -31.179688 L 40.921875 -31.179688 L 40.921875 -52.613281 L 115.945312 -52.613281 L 115.945312 -19.488281 L 135.433594 0 Z M 147.125 0 "/></g></g></g><g fill="#ff0000" fill-opacity="1"><g transform="translate(747.010779, 718.605116)"><g><path d="M 118.871094 0 L 138.355469 -19.488281 L 138.355469 -116.921875 L 118.871094 -136.40625 L 0.972656 -136.40625 L 0.972656 -105.230469 L 107.175781 -105.230469 L 107.175781 -31.179688 L 46.769531 -31.179688 L 46.769531 -95.484375 L 15.589844 -95.484375 L 15.589844 0 Z M 118.871094 0 "/></g></g></g><g fill="#ff0000" fill-opacity="1"><g transform="translate(915.961704, 718.605116)"><g><path d="M 127.640625 0 L 147.125 -19.488281 L 147.125 -136.40625 L 115.945312 -136.40625 L 115.945312 -84.769531 L 40.921875 -84.769531 L 40.921875 -136.40625 L 9.742188 -136.40625 L 9.742188 -73.074219 L 29.230469 -53.589844 L 115.945312 -53.589844 L 115.945312 -31.179688 L 19.488281 -31.179688 L 19.488281 0 Z M 127.640625 0 "/></g></g></g><g fill="#00ffff" fill-opacity="1"><g transform="translate(240.012917, 716.230317)"><g><path d="M 118.871094 -33.128906 L 138.355469 -52.613281 L 138.355469 -116.921875 L 118.871094 -136.40625 L 0.972656 -136.40625 L 0.972656 -105.230469 L 107.175781 -105.230469 L 107.175781 -64.304688 L 46.769531 -64.304688 L 46.769531 -95.484375 L 15.589844 -95.484375 L 15.589844 0 L 46.769531 0 L 46.769531 -33.128906 L 79.3125 -33.128906 C 89.054688 -22.019531 98.601562 -10.914062 108.542969 0 L 148.101562 0 C 138.160156 -10.914062 128.613281 -22.019531 118.871094 -33.128906 Z M 118.871094 -33.128906 "/></g></g></g><g fill="#00ffff" fill-opacity="1"><g transform="translate(410.912494, 716.230317)"><g><path d="M 142.253906 0 L 142.253906 -31.179688 L 40.921875 -31.179688 L 40.921875 -105.230469 L 115.945312 -105.230469 L 115.945312 -81.84375 L 50.664062 -81.84375 L 50.664062 -50.664062 L 127.640625 -50.664062 L 147.125 -70.152344 L 147.125 -116.921875 L 127.640625 -136.40625 L 29.230469 -136.40625 L 9.742188 -116.921875 L 9.742188 -19.488281 L 29.230469 0 Z M 142.253906 0 "/></g></g></g><g fill="#00ffff" fill-opacity="1"><g transform="translate(588.632432, 716.230317)"><g><path d="M 147.125 0 L 147.125 -116.921875 L 127.640625 -136.40625 L 14.613281 -136.40625 L 14.613281 -105.230469 L 115.945312 -105.230469 L 115.945312 -83.792969 L 29.230469 -83.792969 L 9.742188 -64.304688 L 9.742188 -19.488281 L 29.230469 0 L 106.203125 0 L 106.203125 -31.179688 L 40.921875 -31.179688 L 40.921875 -52.613281 L 115.945312 -52.613281 L 115.945312 -19.488281 L 135.433594 0 Z M 147.125 0 "/></g></g></g><g fill="#00ffff" fill-opacity="1"><g transform="translate(766.35237, 716.230317)"><g><path d="M 118.871094 0 L 138.355469 -19.488281 L 138.355469 -116.921875 L 118.871094 -136.40625 L 0.972656 -136.40625 L 0.972656 -105.230469 L 107.175781 -105.230469 L 107.175781 -31.179688 L 46.769531 -31.179688 L 46.769531 -95.484375 L 15.589844 -95.484375 L 15.589844 0 Z M 118.871094 0 "/></g></g></g><g fill="#00ffff" fill-opacity="1"><g transform="translate(935.303295, 716.230317)"><g><path d="M 127.640625 0 L 147.125 -19.488281 L 147.125 -136.40625 L 115.945312 -136.40625 L 115.945312 -84.769531 L 40.921875 -84.769531 L 40.921875 -136.40625 L 9.742188 -136.40625 L 9.742188 -73.074219 L 29.230469 -53.589844 L 115.945312 -53.589844 L 115.945312 -31.179688 L 19.488281 -31.179688 L 19.488281 0 Z M 127.640625 0 "/></g></g></g><g fill="#ffffff" fill-opacity="1"><g transform="translate(230.34212, 717.417716)"><g><path d="M 118.871094 -33.128906 L 138.355469 -52.613281 L 138.355469 -116.921875 L 118.871094 -136.40625 L 0.972656 -136.40625 L 0.972656 -105.230469 L 107.175781 -105.230469 L 107.175781 -64.304688 L 46.769531 -64.304688 L 46.769531 -95.484375 L 15.589844 -95.484375 L 15.589844 0 L 46.769531 0 L 46.769531 -33.128906 L 79.3125 -33.128906 C 89.054688 -22.019531 98.601562 -10.914062 108.542969 0 L 148.101562 0 C 138.160156 -10.914062 128.613281 -22.019531 118.871094 -33.128906 Z M 118.871094 -33.128906 "/></g></g></g><g fill="#ffffff" fill-opacity="1"><g transform="translate(401.241697, 717.417716)"><g><path d="M 142.253906 0 L 142.253906 -31.179688 L 40.921875 -31.179688 L 40.921875 -105.230469 L 115.945312 -105.230469 L 115.945312 -81.84375 L 50.664062 -81.84375 L 50.664062 -50.664062 L 127.640625 -50.664062 L 147.125 -70.152344 L 147.125 -116.921875 L 127.640625 -136.40625 L 29.230469 -136.40625 L 9.742188 -116.921875 L 9.742188 -19.488281 L 29.230469 0 Z M 142.253906 0 "/></g></g></g><g fill="#ffffff" fill-opacity="1"><g transform="translate(578.961635, 717.417716)"><g><path d="M 147.125 0 L 147.125 -116.921875 L 127.640625 -136.40625 L 14.613281 -136.40625 L 14.613281 -105.230469 L 115.945312 -105.230469 L 115.945312 -83.792969 L 29.230469 -83.792969 L 9.742188 -64.304688 L 9.742188 -19.488281 L 29.230469 0 L 106.203125 0 L 106.203125 -31.179688 L 40.921875 -31.179688 L 40.921875 -52.613281 L 115.945312 -52.613281 L 115.945312 -19.488281 L 135.433594 0 Z M 147.125 0 "/></g></g></g><g fill="#ffffff" fill-opacity="1"><g transform="translate(756.681574, 717.417716)"><g><path d="M 118.871094 0 L 138.355469 -19.488281 L 138.355469 -116.921875 L 118.871094 -136.40625 L 0.972656 -136.40625 L 0.972656 -105.230469 L 107.175781 -105.230469 L 107.175781 -31.179688 L 46.769531 -31.179688 L 46.769531 -95.484375 L 15.589844 -95.484375 L 15.589844 0 Z M 118.871094 0 "/></g></g></g><g fill="#ffffff" fill-opacity="1"><g transform="translate(925.632498, 717.417716)"><g><path d="M 127.640625 0 L 147.125 -19.488281 L 147.125 -136.40625 L 115.945312 -136.40625 L 115.945312 -84.769531 L 40.921875 -84.769531 L 40.921875 -136.40625 L 9.742188 -136.40625 L 9.742188 -73.074219 L 29.230469 -53.589844 L 115.945312 -53.589844 L 115.945312 -31.179688 L 19.488281 -31.179688 L 19.488281 0 Z M 127.640625 0 "/></g></g></g><g fill="#ff0000" fill-opacity="1"><g transform="translate(401.799883, 893.986582)"><g><path d="M 114.972656 -52.613281 L 114.972656 -83.792969 L 46.769531 -83.792969 L 46.769531 -105.230469 L 134.460938 -105.230469 L 134.460938 -136.40625 L 0.972656 -136.40625 L 0.972656 -105.230469 L 15.589844 -105.230469 L 15.589844 0 L 46.769531 0 L 46.769531 -52.613281 Z M 114.972656 -52.613281 "/></g></g></g><g fill="#ff0000" fill-opacity="1"><g transform="translate(559.058665, 893.986582)"><g><path d="M 132.511719 0 L 151.996094 -19.488281 L 151.996094 -116.921875 L 132.511719 -136.40625 L 29.230469 -136.40625 L 9.742188 -116.921875 L 9.742188 -19.488281 L 29.230469 0 Z M 120.816406 -31.179688 L 40.921875 -31.179688 L 40.921875 -105.230469 L 120.816406 -105.230469 Z M 120.816406 -31.179688 "/></g></g></g><g fill="#ff0000" fill-opacity="1"><g transform="translate(741.65031, 893.986582)"><g><path d="M 118.871094 -33.128906 L 138.355469 -52.613281 L 138.355469 -116.921875 L 118.871094 -136.40625 L 0.972656 -136.40625 L 0.972656 -105.230469 L 107.175781 -105.230469 L 107.175781 -64.304688 L 46.769531 -64.304688 L 46.769531 -95.484375 L 15.589844 -95.484375 L 15.589844 0 L 46.769531 0 L 46.769531 -33.128906 L 79.3125 -33.128906 C 89.054688 -22.019531 98.601562 -10.914062 108.542969 0 L 148.101562 0 C 138.160156 -10.914062 128.613281 -22.019531 118.871094 -33.128906 Z M 118.871094 -33.128906 "/></g></g></g><g fill="#00ffff" fill-opacity="1"><g transform="translate(421.141474, 891.611782)"><g><path d="M 114.972656 -52.613281 L 114.972656 -83.792969 L 46.769531 -83.792969 L 46.769531 -105.230469 L 134.460938 -105.230469 L 134.460938 -136.40625 L 0.972656 -136.40625 L 0.972656 -105.230469 L 15.589844 -105.230469 L 15.589844 0 L 46.769531 0 L 46.769531 -52.613281 Z M 114.972656 -52.613281 "/></g></g></g><g fill="#00ffff" fill-opacity="1"><g transform="translate(578.400256, 891.611782)"><g><path d="M 132.511719 0 L 151.996094 -19.488281 L 151.996094 -116.921875 L 132.511719 -136.40625 L 29.230469 -136.40625 L 9.742188 -116.921875 L 9.742188 -19.488281 L 29.230469 0 Z M 120.816406 -31.179688 L 40.921875 -31.179688 L 40.921875 -105.230469 L 120.816406 -105.230469 Z M 120.816406 -31.179688 "/></g></g></g><g fill="#00ffff" fill-opacity="1"><g transform="translate(760.991902, 891.611782)"><g><path d="M 118.871094 -33.128906 L 138.355469 -52.613281 L 138.355469 -116.921875 L 118.871094 -136.40625 L 0.972656 -136.40625 L 0.972656 -105.230469 L 107.175781 -105.230469 L 107.175781 -64.304688 L 46.769531 -64.304688 L 46.769531 -95.484375 L 15.589844 -95.484375 L 15.589844 0 L 46.769531 0 L 46.769531 -33.128906 L 79.3125 -33.128906 C 89.054688 -22.019531 98.601562 -10.914062 108.542969 0 L 148.101562 0 C 138.160156 -10.914062 128.613281 -22.019531 118.871094 -33.128906 Z M 118.871094 -33.128906 "/></g></g></g><g fill="#ffffff" fill-opacity="1"><g transform="translate(411.470677, 892.799182)"><g><path d="M 114.972656 -52.613281 L 114.972656 -83.792969 L 46.769531 -83.792969 L 46.769531 -105.230469 L 134.460938 -105.230469 L 134.460938 -136.40625 L 0.972656 -136.40625 L 0.972656 -105.230469 L 15.589844 -105.230469 L 15.589844 0 L 46.769531 0 L 46.769531 -52.613281 Z M 114.972656 -52.613281 "/></g></g></g><g fill="#ffffff" fill-opacity="1"><g transform="translate(568.729459, 892.799182)"><g><path d="M 132.511719 0 L 151.996094 -19.488281 L 151.996094 -116.921875 L 132.511719 -136.40625 L 29.230469 -136.40625 L 9.742188 -116.921875 L 9.742188 -19.488281 L 29.230469 0 Z M 120.816406 -31.179688 L 40.921875 -31.179688 L 40.921875 -105.230469 L 120.816406 -105.230469 Z M 120.816406 -31.179688 "/></g></g></g><g fill="#ffffff" fill-opacity="1"><g transform="translate(751.321105, 892.799182)"><g><path d="M 118.871094 -33.128906 L 138.355469 -52.613281 L 138.355469 -116.921875 L 118.871094 -136.40625 L 0.972656 -136.40625 L 0.972656 -105.230469 L 107.175781 -105.230469 L 107.175781 -64.304688 L 46.769531 -64.304688 L 46.769531 -95.484375 L 15.589844 -95.484375 L 15.589844 0 L 46.769531 0 L 46.769531 -33.128906 L 79.3125 -33.128906 C 89.054688 -22.019531 98.601562 -10.914062 108.542969 0 L 148.101562 0 C 138.160156 -10.914062 128.613281 -22.019531 118.871094 -33.128906 Z M 118.871094 -33.128906 "/></g></g></g><g fill="#ff0000" fill-opacity="1"><g transform="translate(150.906953, 1069.368047)"><g><path d="M 126.664062 0 L 146.152344 -19.488281 L 146.152344 -48.71875 L 126.664062 -68.203125 L 146.152344 -87.691406 L 146.152344 -116.921875 L 126.664062 -136.40625 L 0.972656 -136.40625 L 0.972656 -105.230469 L 15.589844 -105.230469 L 15.589844 0 Z M 114.972656 -31.179688 L 46.769531 -31.179688 L 46.769531 -52.613281 L 114.972656 -52.613281 Z M 114.972656 -83.792969 L 46.769531 -83.792969 L 46.769531 -105.230469 L 114.972656 -105.230469 Z M 114.972656 -83.792969 "/></g></g></g><g fill="#ff0000" fill-opacity="1"><g transform="translate(327.652583, 1069.368047)"><g><path d="M 147.125 0 L 147.125 -116.921875 L 127.640625 -136.40625 L 14.613281 -136.40625 L 14.613281 -105.230469 L 115.945312 -105.230469 L 115.945312 -83.792969 L 29.230469 -83.792969 L 9.742188 -64.304688 L 9.742188 -19.488281 L 29.230469 0 L 106.203125 0 L 106.203125 -31.179688 L 40.921875 -31.179688 L 40.921875 -52.613281 L 115.945312 -52.613281 L 115.945312 -19.488281 L 135.433594 0 Z M 147.125 0 "/></g></g></g><g fill="#ff0000" fill-opacity="1"><g transform="translate(505.37254, 1069.368047)"><g><path d="M 85.9375 0 L 85.9375 -105.230469 L 139.71875 -105.230469 L 139.71875 -136.40625 L 0.972656 -136.40625 L 0.972656 -105.230469 L 54.757812 -105.230469 L 54.757812 0 Z M 85.9375 0 "/></g></g></g><g fill="#ff0000" fill-opacity="1"><g transform="translate(666.918411, 1069.368047)"><g><path d="M 85.9375 0 L 85.9375 -105.230469 L 139.71875 -105.230469 L 139.71875 -136.40625 L 0.972656 -136.40625 L 0.972656 -105.230469 L 54.757812 -105.230469 L 54.757812 0 Z M 85.9375 0 "/></g></g></g><g fill="#ff0000" fill-opacity="1"><g transform="translate(828.46432, 1069.368047)"><g><path d="M 134.460938 0 L 134.460938 -31.179688 L 46.769531 -31.179688 L 46.769531 -136.40625 L 0.972656 -136.40625 L 0.972656 -105.230469 L 15.589844 -105.230469 L 15.589844 0 Z M 134.460938 0 "/></g></g></g><g fill="#ff0000" fill-opacity="1"><g transform="translate(985.723102, 1069.368047)"><g><path d="M 142.253906 0 L 142.253906 -31.179688 L 40.921875 -31.179688 L 40.921875 -105.230469 L 115.945312 -105.230469 L 115.945312 -81.84375 L 50.664062 -81.84375 L 50.664062 -50.664062 L 127.640625 -50.664062 L 147.125 -70.152344 L 147.125 -116.921875 L 127.640625 -136.40625 L 29.230469 -136.40625 L 9.742188 -116.921875 L 9.742188 -19.488281 L 29.230469 0 Z M 142.253906 0 "/></g></g></g><g fill="#00ffff" fill-opacity="1"><g transform="translate(170.248545, 1066.993247)"><g><path d="M 126.664062 0 L 146.152344 -19.488281 L 146.152344 -48.71875 L 126.664062 -68.203125 L 146.152344 -87.691406 L 146.152344 -116.921875 L 126.664062 -136.40625 L 0.972656 -136.40625 L 0.972656 -105.230469 L 15.589844 -105.230469 L 15.589844 0 Z M 114.972656 -31.179688 L 46.769531 -31.179688 L 46.769531 -52.613281 L 114.972656 -52.613281 Z M 114.972656 -83.792969 L 46.769531 -83.792969 L 46.769531 -105.230469 L 114.972656 -105.230469 Z M 114.972656 -83.792969 "/></g></g></g><g fill="#00ffff" fill-opacity="1"><g transform="translate(346.994174, 1066.993247)"><g><path d="M 147.125 0 L 147.125 -116.921875 L 127.640625 -136.40625 L 14.613281 -136.40625 L 14.613281 -105.230469 L 115.945312 -105.230469 L 115.945312 -83.792969 L 29.230469 -83.792969 L 9.742188 -64.304688 L 9.742188 -19.488281 L 29.230469 0 L 106.203125 0 L 106.203125 -31.179688 L 40.921875 -31.179688 L 40.921875 -52.613281 L 115.945312 -52.613281 L 115.945312 -19.488281 L 135.433594 0 Z M 147.125 0 "/></g></g></g><g fill="#00ffff" fill-opacity="1"><g transform="translate(524.714131, 1066.993247)"><g><path d="M 85.9375 0 L 85.9375 -105.230469 L 139.71875 -105.230469 L 139.71875 -136.40625 L 0.972656 -136.40625 L 0.972656 -105.230469 L 54.757812 -105.230469 L 54.757812 0 Z M 85.9375 0 "/></g></g></g><g fill="#00ffff" fill-opacity="1"><g transform="translate(686.260002, 1066.993247)"><g><path d="M 85.9375 0 L 85.9375 -105.230469 L 139.71875 -105.230469 L 139.71875 -136.40625 L 0.972656 -136.40625 L 0.972656 -105.230469 L 54.757812 -105.230469 L 54.757812 0 Z M 85.9375 0 "/></g></g></g><g fill="#00ffff" fill-opacity="1"><g transform="translate(847.805911, 1066.993247)"><g><path d="M 134.460938 0 L 134.460938 -31.179688 L 46.769531 -31.179688 L 46.769531 -136.40625 L 0.972656 -136.40625 L 0.972656 -105.230469 L 15.589844 -105.230469 L 15.589844 0 Z M 134.460938 0 "/></g></g></g><g fill="#00ffff" fill-opacity="1"><g transform="translate(1005.064693, 1066.993247)"><g><path d="M 142.253906 0 L 142.253906 -31.179688 L 40.921875 -31.179688 L 40.921875 -105.230469 L 115.945312 -105.230469 L 115.945312 -81.84375 L 50.664062 -81.84375 L 50.664062 -50.664062 L 127.640625 -50.664062 L 147.125 -70.152344 L 147.125 -116.921875 L 127.640625 -136.40625 L 29.230469 -136.40625 L 9.742188 -116.921875 L 9.742188 -19.488281 L 29.230469 0 Z M 142.253906 0 "/></g></g></g><g fill="#ffffff" fill-opacity="1"><g transform="translate(160.577748, 1068.180647)"><g><path d="M 126.664062 0 L 146.152344 -19.488281 L 146.152344 -48.71875 L 126.664062 -68.203125 L 146.152344 -87.691406 L 146.152344 -116.921875 L 126.664062 -136.40625 L 0.972656 -136.40625 L 0.972656 -105.230469 L 15.589844 -105.230469 L 15.589844 0 Z M 114.972656 -31.179688 L 46.769531 -31.179688 L 46.769531 -52.613281 L 114.972656 -52.613281 Z M 114.972656 -83.792969 L 46.769531 -83.792969 L 46.769531 -105.230469 L 114.972656 -105.230469 Z M 114.972656 -83.792969 "/></g></g></g><g fill="#ffffff" fill-opacity="1"><g transform="translate(337.323378, 1068.180647)"><g><path d="M 147.125 0 L 147.125 -116.921875 L 127.640625 -136.40625 L 14.613281 -136.40625 L 14.613281 -105.230469 L 115.945312 -105.230469 L 115.945312 -83.792969 L 29.230469 -83.792969 L 9.742188 -64.304688 L 9.742188 -19.488281 L 29.230469 0 L 106.203125 0 L 106.203125 -31.179688 L 40.921875 -31.179688 L 40.921875 -52.613281 L 115.945312 -52.613281 L 115.945312 -19.488281 L 135.433594 0 Z M 147.125 0 "/></g></g></g><g fill="#ffffff" fill-opacity="1"><g transform="translate(515.043334, 1068.180647)"><g><path d="M 85.9375 0 L 85.9375 -105.230469 L 139.71875 -105.230469 L 139.71875 -136.40625 L 0.972656 -136.40625 L 0.972656 -105.230469 L 54.757812 -105.230469 L 54.757812 0 Z M 85.9375 0 "/></g></g></g><g fill="#ffffff" fill-opacity="1"><g transform="translate(676.589205, 1068.180647)"><g><path d="M 85.9375 0 L 85.9375 -105.230469 L 139.71875 -105.230469 L 139.71875 -136.40625 L 0.972656 -136.40625 L 0.972656 -105.230469 L 54.757812 -105.230469 L 54.757812 0 Z M 85.9375 0 "/></g></g></g><g fill="#ffffff" fill-opacity="1"><g transform="translate(838.135114, 1068.180647)"><g><path d="M 134.460938 0 L 134.460938 -31.179688 L 46.769531 -31.179688 L 46.769531 -136.40625 L 0.972656 -136.40625 L 0.972656 -105.230469 L 15.589844 -105.230469 L 15.589844 0 Z M 134.460938 0 "/></g></g></g><g fill="#ffffff" fill-opacity="1"><g transform="translate(995.393896, 1068.180647)"><g><path d="M 142.253906 0 L 142.253906 -31.179688 L 40.921875 -31.179688 L 40.921875 -105.230469 L 115.945312 -105.230469 L 115.945312 -81.84375 L 50.664062 -81.84375 L 50.664062 -50.664062 L 127.640625 -50.664062 L 147.125 -70.152344 L 147.125 -116.921875 L 127.640625 -136.40625 L 29.230469 -136.40625 L 9.742188 -116.921875 L 9.742188 -19.488281 L 29.230469 0 Z M 142.253906 0 "/></g></g></g></svg>