<svg xmlns="http://www.w3.org/2000/svg" xmlns:xlink="http://www.w3.org/1999/xlink" width="300" zoomAndPan="magnify" viewBox="0 0 224.87999 149.999998" height="200" preserveAspectRatio="xMidYMid meet" version="1.0"><defs><g/></defs><g fill="#ff0000" fill-opacity="1"><g transform="translate(17.80369, 70.744023)"><g><path d="M 25.816406 -7.195312 L 30.046875 -11.425781 L 30.046875 -25.390625 L 25.816406 -29.625 L 0.210938 -29.625 L 0.210938 -22.851562 L 23.277344 -22.851562 L 23.277344 -13.964844 L 10.15625 -13.964844 L 10.15625 -20.738281 L 3.386719 -20.738281 L 3.386719 0 L 10.15625 0 L 10.15625 -7.195312 L 17.222656 -7.195312 C 19.339844 -4.78125 21.414062 -2.371094 23.574219 0 L 32.164062 0 C 30.003906 -2.371094 27.933594 -4.78125 25.816406 -7.195312 Z M 25.816406 -7.195312 "/></g></g></g><g fill="#ff0000" fill-opacity="1"><g transform="translate(54.918949, 70.744023)"><g><path d="M 30.894531 0 L 30.894531 -6.769531 L 8.886719 -6.769531 L 8.886719 -22.851562 L 25.179688 -22.851562 L 25.179688 -17.773438 L 11.003906 -17.773438 L 11.003906 -11.003906 L 27.71875 -11.003906 L 31.953125 -15.234375 L 31.953125 -25.390625 L 27.71875 -29.625 L 6.347656 -29.625 L 2.117188 -25.390625 L 2.117188 -4.230469 L 6.347656 0 Z M 30.894531 0 "/></g></g></g><g fill="#ff0000" fill-opacity="1"><g transform="translate(93.515426, 70.744023)"><g><path d="M 31.953125 0 L 31.953125 -25.390625 L 27.71875 -29.625 L 3.175781 -29.625 L 3.175781 -22.851562 L 25.179688 -22.851562 L 25.179688 -18.199219 L 6.347656 -18.199219 L 2.117188 -13.964844 L 2.117188 -4.230469 L 6.347656 0 L 23.066406 0 L 23.066406 -6.769531 L 8.886719 -6.769531 L 8.886719 -11.425781 L 25.179688 -11.425781 L 25.179688 -4.230469 L 29.414062 0 Z M 31.953125 0 "/></g></g></g><g fill="#ff0000" fill-opacity="1"><g transform="translate(132.111904, 70.744023)"><g><path d="M 25.816406 0 L 30.046875 -4.230469 L 30.046875 -25.390625 L 25.816406 -29.625 L 0.210938 -29.625 L 0.210938 -22.851562 L 23.277344 -22.851562 L 23.277344 -6.769531 L 10.15625 -6.769531 L 10.15625 -20.738281 L 3.386719 -20.738281 L 3.386719 0 Z M 25.816406 0 "/></g></g></g><g fill="#ff0000" fill-opacity="1"><g transform="translate(168.803963, 70.744023)"><g><path d="M 27.71875 0 L 31.953125 -4.230469 L 31.953125 -29.625 L 25.179688 -29.625 L 25.179688 -18.410156 L 8.886719 -18.410156 L 8.886719 -29.625 L 2.117188 -29.625 L 2.117188 -15.871094 L 6.347656 -11.636719 L 25.179688 -11.636719 L 25.179688 -6.769531 L 4.230469 -6.769531 L 4.230469 0 Z M 27.71875 0 "/></g></g></g><g fill="#00ffff" fill-opacity="1"><g transform="translate(22.004213, 70.228263)"><g><path d="M 25.816406 -7.195312 L 30.046875 -11.425781 L 30.046875 -25.390625 L 25.816406 -29.625 L 0.210938 -29.625 L 0.210938 -22.851562 L 23.277344 -22.851562 L 23.277344 -13.964844 L 10.15625 -13.964844 L 10.15625 -20.738281 L 3.386719 -20.738281 L 3.386719 0 L 10.15625 0 L 10.15625 -7.195312 L 17.222656 -7.195312 C 19.339844 -4.78125 21.414062 -2.371094 23.574219 0 L 32.164062 0 C 30.003906 -2.371094 27.933594 -4.78125 25.816406 -7.195312 Z M 25.816406 -7.195312 "/></g></g></g><g fill="#00ffff" fill-opacity="1"><g transform="translate(59.119473, 70.228263)"><g><path d="M 30.894531 0 L 30.894531 -6.769531 L 8.886719 -6.769531 L 8.886719 -22.851562 L 25.179688 -22.851562 L 25.179688 -17.773438 L 11.003906 -17.773438 L 11.003906 -11.003906 L 27.71875 -11.003906 L 31.953125 -15.234375 L 31.953125 -25.390625 L 27.71875 -29.625 L 6.347656 -29.625 L 2.117188 -25.390625 L 2.117188 -4.230469 L 6.347656 0 Z M 30.894531 0 "/></g></g></g><g fill="#00ffff" fill-opacity="1"><g transform="translate(97.71595, 70.228263)"><g><path d="M 31.953125 0 L 31.953125 -25.390625 L 27.71875 -29.625 L 3.175781 -29.625 L 3.175781 -22.851562 L 25.179688 -22.851562 L 25.179688 -18.199219 L 6.347656 -18.199219 L 2.117188 -13.964844 L 2.117188 -4.230469 L 6.347656 0 L 23.066406 0 L 23.066406 -6.769531 L 8.886719 -6.769531 L 8.886719 -11.425781 L 25.179688 -11.425781 L 25.179688 -4.230469 L 29.414062 0 Z M 31.953125 0 "/></g></g></g><g fill="#00ffff" fill-opacity="1"><g transform="translate(136.312427, 70.228263)"><g><path d="M 25.816406 0 L 30.046875 -4.230469 L 30.046875 -25.390625 L 25.816406 -29.625 L 0.210938 -29.625 L 0.210938 -22.851562 L 23.277344 -22.851562 L 23.277344 -6.769531 L 10.15625 -6.769531 L 10.15625 -20.738281 L 3.386719 -20.738281 L 3.386719 0 Z M 25.816406 0 "/></g></g></g><g fill="#00ffff" fill-opacity="1"><g transform="translate(173.004486, 70.228263)"><g><path d="M 27.71875 0 L 31.953125 -4.230469 L 31.953125 -29.625 L 25.179688 -29.625 L 25.179688 -18.410156 L 8.886719 -18.410156 L 8.886719 -29.625 L 2.117188 -29.625 L 2.117188 -15.871094 L 6.347656 -11.636719 L 25.179688 -11.636719 L 25.179688 -6.769531 L 4.230469 -6.769531 L 4.230469 0 Z M 27.71875 0 "/></g></g></g><g fill="#ffffff" fill-opacity="1"><g transform="translate(19.903952, 70.486143)"><g><path d="M 25.816406 -7.195312 L 30.046875 -11.425781 L 30.046875 -25.390625 L 25.816406 -29.625 L 0.210938 -29.625 L 0.210938 -22.851562 L 23.277344 -22.851562 L 23.277344 -13.964844 L 10.15625 -13.964844 L 10.15625 -20.738281 L 3.386719 -20.738281 L 3.386719 0 L 10.15625 0 L 10.15625 -7.195312 L 17.222656 -7.195312 C 19.339844 -4.78125 21.414062 -2.371094 23.574219 0 L 32.164062 0 C 30.003906 -2.371094 27.933594 -4.78125 25.816406 -7.195312 Z M 25.816406 -7.195312 "/></g></g></g><g fill="#ffffff" fill-opacity="1"><g transform="translate(57.019211, 70.486143)"><g><path d="M 30.894531 0 L 30.894531 -6.769531 L 8.886719 -6.769531 L 8.886719 -22.851562 L 25.179688 -22.851562 L 25.179688 -17.773438 L 11.003906 -17.773438 L 11.003906 -11.003906 L 27.71875 -11.003906 L 31.953125 -15.234375 L 31.953125 -25.390625 L 27.71875 -29.625 L 6.347656 -29.625 L 2.117188 -25.390625 L 2.117188 -4.230469 L 6.347656 0 Z M 30.894531 0 "/></g></g></g><g fill="#ffffff" fill-opacity="1"><g transform="translate(95.615688, 70.486143)"><g><path d="M 31.953125 0 L 31.953125 -25.390625 L 27.71875 -29.625 L 3.175781 -29.625 L 3.175781 -22.851562 L 25.179688 -22.851562 L 25.179688 -18.199219 L 6.347656 -18.199219 L 2.117188 -13.964844 L 2.117188 -4.230469 L 6.347656 0 L 23.066406 0 L 23.066406 -6.769531 L 8.886719 -6.769531 L 8.886719 -11.425781 L 25.179688 -11.425781 L 25.179688 -4.230469 L 29.414062 0 Z M 31.953125 0 "/></g></g></g><g fill="#ffffff" fill-opacity="1"><g transform="translate(134.212165, 70.486143)"><g><path d="M 25.816406 0 L 30.046875 -4.230469 L 30.046875 -25.390625 L 25.816406 -29.625 L 0.210938 -29.625 L 0.210938 -22.851562 L 23.277344 -22.851562 L 23.277344 -6.769531 L 10.15625 -6.769531 L 10.15625 -20.738281 L 3.386719 -20.738281 L 3.386719 0 Z M 25.816406 0 "/></g></g></g><g fill="#ffffff" fill-opacity="1"><g transform="translate(170.904225, 70.486143)"><g><path d="M 27.71875 0 L 31.953125 -4.230469 L 31.953125 -29.625 L 25.179688 -29.625 L 25.179688 -18.410156 L 8.886719 -18.410156 L 8.886719 -29.625 L 2.117188 -29.625 L 2.117188 -15.871094 L 6.347656 -11.636719 L 25.179688 -11.636719 L 25.179688 -6.769531 L 4.230469 -6.769531 L 4.230469 0 Z M 27.71875 0 "/></g></g></g><g fill="#ff0000" fill-opacity="1"><g transform="translate(57.140437, 108.832641)"><g><path d="M 24.96875 -11.425781 L 24.96875 -18.199219 L 10.15625 -18.199219 L 10.15625 -22.851562 L 29.203125 -22.851562 L 29.203125 -29.625 L 0.210938 -29.625 L 0.210938 -22.851562 L 3.386719 -22.851562 L 3.386719 0 L 10.15625 0 L 10.15625 -11.425781 Z M 24.96875 -11.425781 "/></g></g></g><g fill="#ff0000" fill-opacity="1"><g transform="translate(91.293245, 108.832641)"><g><path d="M 28.777344 0 L 33.011719 -4.230469 L 33.011719 -25.390625 L 28.777344 -29.625 L 6.347656 -29.625 L 2.117188 -25.390625 L 2.117188 -4.230469 L 6.347656 0 Z M 26.238281 -6.769531 L 8.886719 -6.769531 L 8.886719 -22.851562 L 26.238281 -22.851562 Z M 26.238281 -6.769531 "/></g></g></g><g fill="#ff0000" fill-opacity="1"><g transform="translate(130.947739, 108.832641)"><g><path d="M 25.816406 -7.195312 L 30.046875 -11.425781 L 30.046875 -25.390625 L 25.816406 -29.625 L 0.210938 -29.625 L 0.210938 -22.851562 L 23.277344 -22.851562 L 23.277344 -13.964844 L 10.15625 -13.964844 L 10.15625 -20.738281 L 3.386719 -20.738281 L 3.386719 0 L 10.15625 0 L 10.15625 -7.195312 L 17.222656 -7.195312 C 19.339844 -4.78125 21.414062 -2.371094 23.574219 0 L 32.164062 0 C 30.003906 -2.371094 27.933594 -4.78125 25.816406 -7.195312 Z M 25.816406 -7.195312 "/></g></g></g><g fill="#00ffff" fill-opacity="1"><g transform="translate(61.34096, 108.316881)"><g><path d="M 24.96875 -11.425781 L 24.96875 -18.199219 L 10.15625 -18.199219 L 10.15625 -22.851562 L 29.203125 -22.851562 L 29.203125 -29.625 L 0.210938 -29.625 L 0.210938 -22.851562 L 3.386719 -22.851562 L 3.386719 0 L 10.15625 0 L 10.15625 -11.425781 Z M 24.96875 -11.425781 "/></g></g></g><g fill="#00ffff" fill-opacity="1"><g transform="translate(95.493768, 108.316881)"><g><path d="M 28.777344 0 L 33.011719 -4.230469 L 33.011719 -25.390625 L 28.777344 -29.625 L 6.347656 -29.625 L 2.117188 -25.390625 L 2.117188 -4.230469 L 6.347656 0 Z M 26.238281 -6.769531 L 8.886719 -6.769531 L 8.886719 -22.851562 L 26.238281 -22.851562 Z M 26.238281 -6.769531 "/></g></g></g><g fill="#00ffff" fill-opacity="1"><g transform="translate(135.148263, 108.316881)"><g><path d="M 25.816406 -7.195312 L 30.046875 -11.425781 L 30.046875 -25.390625 L 25.816406 -29.625 L 0.210938 -29.625 L 0.210938 -22.851562 L 23.277344 -22.851562 L 23.277344 -13.964844 L 10.15625 -13.964844 L 10.15625 -20.738281 L 3.386719 -20.738281 L 3.386719 0 L 10.15625 0 L 10.15625 -7.195312 L 17.222656 -7.195312 C 19.339844 -4.78125 21.414062 -2.371094 23.574219 0 L 32.164062 0 C 30.003906 -2.371094 27.933594 -4.78125 25.816406 -7.195312 Z M 25.816406 -7.195312 "/></g></g></g><g fill="#ffffff" fill-opacity="1"><g transform="translate(59.240698, 108.574761)"><g><path d="M 24.96875 -11.425781 L 24.96875 -18.199219 L 10.15625 -18.199219 L 10.15625 -22.851562 L 29.203125 -22.851562 L 29.203125 -29.625 L 0.210938 -29.625 L 0.210938 -22.851562 L 3.386719 -22.851562 L 3.386719 0 L 10.15625 0 L 10.15625 -11.425781 Z M 24.96875 -11.425781 "/></g></g></g><g fill="#ffffff" fill-opacity="1"><g transform="translate(93.393507, 108.574761)"><g><path d="M 28.777344 0 L 33.011719 -4.230469 L 33.011719 -25.390625 L 28.777344 -29.625 L 6.347656 -29.625 L 2.117188 -25.390625 L 2.117188 -4.230469 L 6.347656 0 Z M 26.238281 -6.769531 L 8.886719 -6.769531 L 8.886719 -22.851562 L 26.238281 -22.851562 Z M 26.238281 -6.769531 "/></g></g></g><g fill="#ffffff" fill-opacity="1"><g transform="translate(133.048001, 108.574761)"><g><path d="M 25.816406 -7.195312 L 30.046875 -11.425781 L 30.046875 -25.390625 L 25.816406 -29.625 L 0.210938 -29.625 L 0.210938 -22.851562 L 23.277344 -22.851562 L 23.277344 -13.964844 L 10.15625 -13.964844 L 10.15625 -20.738281 L 3.386719 -20.738281 L 3.386719 0 L 10.15625 0 L 10.15625 -7.195312 L 17.222656 -7.195312 C 19.339844 -4.78125 21.414062 -2.371094 23.574219 0 L 32.164062 0 C 30.003906 -2.371094 27.933594 -4.78125 25.816406 -7.195312 Z M 25.816406 -7.195312 "/></g></g></g><g fill="#ff0000" fill-opacity="1"><g transform="translate(2.652554, 146.921258)"><g><path d="M 27.507812 0 L 31.742188 -4.230469 L 31.742188 -10.582031 L 27.507812 -14.8125 L 31.742188 -19.042969 L 31.742188 -25.390625 L 27.507812 -29.625 L 0.210938 -29.625 L 0.210938 -22.851562 L 3.386719 -22.851562 L 3.386719 0 Z M 24.96875 -6.769531 L 10.15625 -6.769531 L 10.15625 -11.425781 L 24.96875 -11.425781 Z M 24.96875 -18.199219 L 10.15625 -18.199219 L 10.15625 -22.851562 L 24.96875 -22.851562 Z M 24.96875 -18.199219 "/></g></g></g><g fill="#ff0000" fill-opacity="1"><g transform="translate(41.037434, 146.921258)"><g><path d="M 31.953125 0 L 31.953125 -25.390625 L 27.71875 -29.625 L 3.175781 -29.625 L 3.175781 -22.851562 L 25.179688 -22.851562 L 25.179688 -18.199219 L 6.347656 -18.199219 L 2.117188 -13.964844 L 2.117188 -4.230469 L 6.347656 0 L 23.066406 0 L 23.066406 -6.769531 L 8.886719 -6.769531 L 8.886719 -11.425781 L 25.179688 -11.425781 L 25.179688 -4.230469 L 29.414062 0 Z M 31.953125 0 "/></g></g></g><g fill="#ff0000" fill-opacity="1"><g transform="translate(79.633916, 146.921258)"><g><path d="M 18.664062 0 L 18.664062 -22.851562 L 30.34375 -22.851562 L 30.34375 -29.625 L 0.210938 -29.625 L 0.210938 -22.851562 L 11.890625 -22.851562 L 11.890625 0 Z M 18.664062 0 "/></g></g></g><g fill="#ff0000" fill-opacity="1"><g transform="translate(114.717776, 146.921258)"><g><path d="M 18.664062 0 L 18.664062 -22.851562 L 30.34375 -22.851562 L 30.34375 -29.625 L 0.210938 -29.625 L 0.210938 -22.851562 L 11.890625 -22.851562 L 11.890625 0 Z M 18.664062 0 "/></g></g></g><g fill="#ff0000" fill-opacity="1"><g transform="translate(149.801645, 146.921258)"><g><path d="M 29.203125 0 L 29.203125 -6.769531 L 10.15625 -6.769531 L 10.15625 -29.625 L 0.210938 -29.625 L 0.210938 -22.851562 L 3.386719 -22.851562 L 3.386719 0 Z M 29.203125 0 "/></g></g></g><g fill="#ff0000" fill-opacity="1"><g transform="translate(183.954453, 146.921258)"><g><path d="M 30.894531 0 L 30.894531 -6.769531 L 8.886719 -6.769531 L 8.886719 -22.851562 L 25.179688 -22.851562 L 25.179688 -17.773438 L 11.003906 -17.773438 L 11.003906 -11.003906 L 27.71875 -11.003906 L 31.953125 -15.234375 L 31.953125 -25.390625 L 27.71875 -29.625 L 6.347656 -29.625 L 2.117188 -25.390625 L 2.117188 -4.230469 L 6.347656 0 Z M 30.894531 0 "/></g></g></g><g fill="#00ffff" fill-opacity="1"><g transform="translate(6.853077, 146.405498)"><g><path d="M 27.507812 0 L 31.742188 -4.230469 L 31.742188 -10.582031 L 27.507812 -14.8125 L 31.742188 -19.042969 L 31.742188 -25.390625 L 27.507812 -29.625 L 0.210938 -29.625 L 0.210938 -22.851562 L 3.386719 -22.851562 L 3.386719 0 Z M 24.96875 -6.769531 L 10.15625 -6.769531 L 10.15625 -11.425781 L 24.96875 -11.425781 Z M 24.96875 -18.199219 L 10.15625 -18.199219 L 10.15625 -22.851562 L 24.96875 -22.851562 Z M 24.96875 -18.199219 "/></g></g></g><g fill="#00ffff" fill-opacity="1"><g transform="translate(45.237958, 146.405498)"><g><path d="M 31.953125 0 L 31.953125 -25.390625 L 27.71875 -29.625 L 3.175781 -29.625 L 3.175781 -22.851562 L 25.179688 -22.851562 L 25.179688 -18.199219 L 6.347656 -18.199219 L 2.117188 -13.964844 L 2.117188 -4.230469 L 6.347656 0 L 23.066406 0 L 23.066406 -6.769531 L 8.886719 -6.769531 L 8.886719 -11.425781 L 25.179688 -11.425781 L 25.179688 -4.230469 L 29.414062 0 Z M 31.953125 0 "/></g></g></g><g fill="#00ffff" fill-opacity="1"><g transform="translate(83.834439, 146.405498)"><g><path d="M 18.664062 0 L 18.664062 -22.851562 L 30.34375 -22.851562 L 30.34375 -29.625 L 0.210938 -29.625 L 0.210938 -22.851562 L 11.890625 -22.851562 L 11.890625 0 Z M 18.664062 0 "/></g></g></g><g fill="#00ffff" fill-opacity="1"><g transform="translate(118.918299, 146.405498)"><g><path d="M 18.664062 0 L 18.664062 -22.851562 L 30.34375 -22.851562 L 30.34375 -29.625 L 0.210938 -29.625 L 0.210938 -22.851562 L 11.890625 -22.851562 L 11.890625 0 Z M 18.664062 0 "/></g></g></g><g fill="#00ffff" fill-opacity="1"><g transform="translate(154.002168, 146.405498)"><g><path d="M 29.203125 0 L 29.203125 -6.769531 L 10.15625 -6.769531 L 10.15625 -29.625 L 0.210938 -29.625 L 0.210938 -22.851562 L 3.386719 -22.851562 L 3.386719 0 Z M 29.203125 0 "/></g></g></g><g fill="#00ffff" fill-opacity="1"><g transform="translate(188.154976, 146.405498)"><g><path d="M 30.894531 0 L 30.894531 -6.769531 L 8.886719 -6.769531 L 8.886719 -22.851562 L 25.179688 -22.851562 L 25.179688 -17.773438 L 11.003906 -17.773438 L 11.003906 -11.003906 L 27.71875 -11.003906 L 31.953125 -15.234375 L 31.953125 -25.390625 L 27.71875 -29.625 L 6.347656 -29.625 L 2.117188 -25.390625 L 2.117188 -4.230469 L 6.347656 0 Z M 30.894531 0 "/></g></g></g><g fill="#ffffff" fill-opacity="1"><g transform="translate(4.752815, 146.663378)"><g><path d="M 27.507812 0 L 31.742188 -4.230469 L 31.742188 -10.582031 L 27.507812 -14.8125 L 31.742188 -19.042969 L 31.742188 -25.390625 L 27.507812 -29.625 L 0.210938 -29.625 L 0.210938 -22.851562 L 3.386719 -22.851562 L 3.386719 0 Z M 24.96875 -6.769531 L 10.15625 -6.769531 L 10.15625 -11.425781 L 24.96875 -11.425781 Z M 24.96875 -18.199219 L 10.15625 -18.199219 L 10.15625 -22.851562 L 24.96875 -22.851562 Z M 24.96875 -18.199219 "/></g></g></g><g fill="#ffffff" fill-opacity="1"><g transform="translate(43.137696, 146.663378)"><g><path d="M 31.953125 0 L 31.953125 -25.390625 L 27.71875 -29.625 L 3.175781 -29.625 L 3.175781 -22.851562 L 25.179688 -22.851562 L 25.179688 -18.199219 L 6.347656 -18.199219 L 2.117188 -13.964844 L 2.117188 -4.230469 L 6.347656 0 L 23.066406 0 L 23.066406 -6.769531 L 8.886719 -6.769531 L 8.886719 -11.425781 L 25.179688 -11.425781 L 25.179688 -4.230469 L 29.414062 0 Z M 31.953125 0 "/></g></g></g><g fill="#ffffff" fill-opacity="1"><g transform="translate(81.734177, 146.663378)"><g><path d="M 18.664062 0 L 18.664062 -22.851562 L 30.34375 -22.851562 L 30.34375 -29.625 L 0.210938 -29.625 L 0.210938 -22.851562 L 11.890625 -22.851562 L 11.890625 0 Z M 18.664062 0 "/></g></g></g><g fill="#ffffff" fill-opacity="1"><g transform="translate(116.818038, 146.663378)"><g><path d="M 18.664062 0 L 18.664062 -22.851562 L 30.34375 -22.851562 L 30.34375 -29.625 L 0.210938 -29.625 L 0.210938 -22.851562 L 11.890625 -22.851562 L 11.890625 0 Z M 18.664062 0 "/></g></g></g><g fill="#ffffff" fill-opacity="1"><g transform="translate(151.901906, 146.663378)"><g><path d="M 29.203125 0 L 29.203125 -6.769531 L 10.15625 -6.769531 L 10.15625 -29.625 L 0.210938 -29.625 L 0.210938 -22.851562 L 3.386719 -22.851562 L 3.386719 0 Z M 29.203125 0 "/></g></g></g><g fill="#ffffff" fill-opacity="1"><g transform="translate(186.054715, 146.663378)"><g><path d="M 30.894531 0 L 30.894531 -6.769531 L 8.886719 -6.769531 L 8.886719 -22.851562 L 25.179688 -22.851562 L 25.179688 -17.773438 L 11.003906 -17.773438 L 11.003906 -11.003906 L 27.71875 -11.003906 L 31.953125 -15.234375 L 31.953125 -25.390625 L 27.71875 -29.625 L 6.347656 -29.625 L 2.117188 -25.390625 L 2.117188 -4.230469 L 6.347656 0 Z M 30.894531 0 "/></g></g></g></svg>