<svg width="175" height="210" viewBox="0 0 175 210" fill="none" xmlns="http://www.w3.org/2000/svg">
<path d="M26.64 137.69C26.11 159.18 27.02 180.71 29.37 202.09C29.61 204.25 30.74 207.09 32.86 206.64C34.22 206.35 34.85 204.81 35.24 203.47C38.26 193.1 40.22 182.42 41.08 171.66L26.64 137.69Z" fill="#F3AC95"/>
<path opacity="0.15" d="M26.55 155.79C28.91 163.3 33.22 174.79 39.64 183.79C40.27 179.77 40.76 175.73 41.08 171.67L26.64 137.7C26.49 143.72 26.47 149.76 26.55 155.79Z" fill="#53476D"/>
<path d="M26.64 137.69C26.11 159.18 27.02 180.71 29.37 202.09C29.61 204.25 30.74 207.09 32.86 206.64C34.22 206.35 34.85 204.81 35.24 203.47C38.26 193.1 40.22 182.42 41.08 171.66L26.64 137.69Z" stroke="#53476D" stroke-width="3" stroke-miterlimit="10" stroke-linecap="round" stroke-linejoin="round"/>
<path d="M142.4 166.51C144.86 177.3 147.72 188.01 150.99 198.58C151.6 200.55 152.83 202.94 154.88 202.71C156.91 202.48 157.59 199.9 157.75 197.86C159.67 173.32 158.32 148.52 153.75 124.33L142.4 166.51Z" fill="#F3AC95"/>
<path opacity="0.15" d="M153.75 124.32L142.4 166.5C143.65 172 145.01 177.48 146.48 182.92C150.73 175.4 154.48 166.17 157.78 154.85C156.99 144.62 155.65 134.42 153.75 124.32Z" fill="#53476D"/>
<path d="M142.4 166.51C144.86 177.3 147.72 188.01 150.99 198.58C151.6 200.55 152.83 202.94 154.88 202.71C156.91 202.48 157.59 199.9 157.75 197.86C159.67 173.32 158.32 148.52 153.75 124.33L142.4 166.51Z" stroke="#53476D" stroke-width="3" stroke-miterlimit="10" stroke-linecap="round" stroke-linejoin="round"/>
<path d="M105.22 44.86C98.63 31.49 90.16 19.05 80.14 8.00999C78.05 5.70999 75.53 3.30999 72.43 3.32999C69.65 3.34999 67.21 5.43999 65.95 7.91999C64.69 10.4 64.37 13.24 64.08 16.01L59.9 55.28C55.32 48.66 49.87 42.65 43.72 37.46C40.18 34.48 35.2 31.66 31.21 34C28.23 35.75 27.35 39.59 26.79 43C22.99 66.35 20.33 90.1 21.87 113.71C23.26 135.02 27.44 152.79 35.37 168.78C43.3 184.77 56.55 198.9 73.61 204.13C97.7 211.5 124.95 199 139.51 178.45C154.07 157.89 157.46 131.06 154.07 106.1C150.69 81.14 141.14 57.49 131.68 34.14L126.83 22.17C124.84 17.27 121 11.37 115.9 12.77C112.03 13.83 110.61 18.46 109.81 22.39C108.27 29.88 106.74 37.37 105.22 44.86Z" fill="#F3AC95"/>
<mask id="mask0_2_346" style="mask-type:luminance" maskUnits="userSpaceOnUse" x="21" y="3" width="135" height="204">
<path d="M105.22 44.86C98.63 31.49 90.16 19.05 80.14 8.00999C78.05 5.70999 75.53 3.30999 72.43 3.32999C69.65 3.34999 67.21 5.43999 65.95 7.91999C64.69 10.4 64.37 13.24 64.08 16.01L59.9 55.28C55.32 48.66 49.87 42.65 43.72 37.46C40.18 34.48 35.2 31.66 31.21 34C28.23 35.75 27.35 39.59 26.79 43C22.99 66.35 20.33 90.1 21.87 113.71C23.26 135.02 27.44 152.79 35.37 168.78C43.3 184.77 56.55 198.9 73.61 204.13C97.7 211.5 124.95 199 139.51 178.45C154.07 157.89 157.46 131.06 154.07 106.1C150.69 81.14 141.14 57.49 131.68 34.14L126.83 22.17C124.84 17.27 121 11.37 115.9 12.77C112.03 13.83 110.61 18.46 109.81 22.39C108.27 29.88 106.74 37.37 105.22 44.86Z" fill="white"/>
</mask>
<g mask="url(#mask0_2_346)">
<path d="M30.34 127.55C37.6688 127.55 43.61 123.65 43.61 118.84C43.61 114.03 37.6688 110.13 30.34 110.13C23.0112 110.13 17.07 114.03 17.07 118.84C17.07 123.65 23.0112 127.55 30.34 127.55Z" fill="#FFE4B8"/>
</g>
<mask id="mask1_2_346" style="mask-type:luminance" maskUnits="userSpaceOnUse" x="21" y="3" width="135" height="204">
<path d="M105.22 44.86C98.63 31.49 90.16 19.05 80.14 8.00999C78.05 5.70999 75.53 3.30999 72.43 3.32999C69.65 3.34999 67.21 5.43999 65.95 7.91999C64.69 10.4 64.37 13.24 64.08 16.01L59.9 55.28C55.32 48.66 49.87 42.65 43.72 37.46C40.18 34.48 35.2 31.66 31.21 34C28.23 35.75 27.35 39.59 26.79 43C22.99 66.35 20.33 90.1 21.87 113.71C23.26 135.02 27.44 152.79 35.37 168.78C43.3 184.77 56.55 198.9 73.61 204.13C97.7 211.5 124.95 199 139.51 178.45C154.07 157.89 157.46 131.06 154.07 106.1C150.69 81.14 141.14 57.49 131.68 34.14L126.83 22.17C124.84 17.27 121 11.37 115.9 12.77C112.03 13.83 110.61 18.46 109.81 22.39C108.27 29.88 106.74 37.37 105.22 44.86Z" fill="white"/>
</mask>
<g mask="url(#mask1_2_346)">
<path d="M159.59 114C158.96 109.23 152.56 106.15 145.29 107.11C138.02 108.07 132.65 112.72 133.28 117.49C133.91 122.26 140.31 125.34 147.58 124.38C154.84 123.41 160.22 118.77 159.59 114Z" fill="#FFE4B8"/>
</g>
<path d="M59.9 55.28C60.98 56.84 62 58.43 62.98 60.05" stroke="#53476D" stroke-width="3" stroke-miterlimit="10" stroke-linecap="round" stroke-linejoin="round"/>
<path d="M103.47 53.41C104.05 50.56 104.63 47.71 105.21 44.86" stroke="#53476D" stroke-width="3" stroke-miterlimit="10" stroke-linecap="round" stroke-linejoin="round"/>
<path d="M90.42 29.43C92.02 29.28 93.23 27.77 93.58 26.2C93.65 25.87 93.69 25.54 93.71 25.2C89.58 19.17 85.05 13.42 80.14 8.00999C78.05 5.70999 75.53 3.30999 72.43 3.32999C69.65 3.34999 67.21 5.43999 65.95 7.91999C64.69 10.4 64.37 13.24 64.08 16.01C64.08 16.01 63.47 21.71 62.72 28.77C63.2 30.04 63.73 31.2 64.3 32.34C64.75 33.22 65.32 34.18 66.28 34.44C67.1 34.67 68 34.29 68.6 33.69C69.2 33.09 69.57 32.29 69.89 31.5C71.22 28.29 72.12 24.89 72.83 20.8C74.57 24.5 76.45 28.13 78.44 31.7C78.95 32.62 79.81 33.68 80.81 33.38C81.69 33.12 81.95 32.01 82.04 31.1C82.28 28.52 82.36 25.93 82.27 23.34C83.59 25.06 85.13 26.62 86.84 27.96C87.88 28.78 89.11 29.55 90.42 29.43Z" fill="#ADA4C0"/>
<path d="M136.57 169.46C134.23 171.39 133.84 175.27 135.75 177.63C136.51 178.57 137.59 179.19 138.75 179.49C139 179.15 139.26 178.81 139.51 178.46C141.41 175.78 143.11 172.99 144.64 170.12C142.66 167.89 138.88 167.56 136.57 169.46Z" fill="#D9876B"/>
<path d="M107.36 34.33C107.46 35.18 107.58 36.02 107.73 36.85C107.89 37.76 108.12 38.76 108.88 39.3C109.66 39.85 110.77 39.71 111.58 39.19C112.38 38.67 112.94 37.86 113.45 37.05C115.25 34.23 116.77 31.24 118.76 27.84C119.67 30.34 120.65 32.82 121.71 35.27C122.14 36.25 122.92 37.41 123.96 37.15C124.58 37 124.96 36.37 125.25 35.8C126.7 32.98 127.87 30.01 128.77 26.97L126.82 22.16C124.83 17.26 120.99 11.36 115.89 12.76C112.02 13.82 110.6 18.45 109.8 22.38C108.99 26.37 108.18 30.35 107.36 34.33Z" fill="#ADA4C0"/>
<path d="M138.57 152.23C136.54 154.06 136.29 157.53 138.04 159.63C139.79 161.73 143.27 162.09 145.41 160.39C147.55 158.69 148.43 154.82 146 152.41C144.06 150.48 140.6 150.39 138.57 152.23Z" fill="#D9876B"/>
<path d="M35.54 147.98C33.98 144.14 29.2 145.73 27.6 147.85C27.54 147.93 27.5 148.01 27.45 148.09C28.41 151.47 29.49 154.77 30.69 157.98C30.84 158.01 30.99 158.03 31.14 158.03C32.83 158.07 34.29 156.77 35.11 155.29C36.33 153.08 36.49 150.31 35.54 147.98Z" fill="#D9876B"/>
<path d="M38.47 163.37C37.74 165.92 39.27 168.91 41.77 169.79C44.27 170.68 47.34 169.33 48.38 166.89C49.42 164.45 48.51 160.54 44.68 159.68C42.09 159.1 39.2 160.82 38.47 163.37Z" fill="#D9876B"/>
<path d="M24.46 58.69C24.69 58.64 24.91 58.56 25.09 58.43C25.57 58.09 25.89 57.57 26.18 57.06C27.41 54.9 28.37 52.59 29.02 50.19C29.18 52.58 29.66 54.94 30.47 57.2C30.79 58.1 31.39 59.14 32.35 59.11C33.47 59.07 33.91 57.66 34.05 56.55C34.38 53.86 34.71 51.17 35.66 48.22C38.06 50.11 40.64 51.76 43.37 53.13C44.34 53.62 45.56 54.05 46.44 53.42C47.37 52.76 47.29 51.37 47.1 50.24C46.36 46.01 45.32 41.83 44.02 37.74C43.92 37.65 43.82 37.56 43.71 37.47C40.17 34.49 35.19 31.67 31.2 34.01C28.22 35.76 27.34 39.6 26.78 43.01C25.94 48.22 25.16 53.44 24.46 58.69Z" fill="#ADA4C0"/>
<path d="M99.5 154.7C88.65 154.33 77.59 155.76 68 160.87C64.46 162.75 61.07 165.08 58.65 168.27C56.23 171.46 54.88 175.63 55.73 179.54C56.94 185.1 62.11 188.86 67.26 191.29C80.68 197.62 96.63 198.38 110.58 193.34C114.69 191.85 118.69 189.85 121.88 186.87C125.07 183.88 127.41 179.82 127.7 175.46C128.07 169.92 125.05 164.5 120.71 161.05C116.37 157.59 109.8 155.05 99.5 154.7Z" fill="#FBC8B9"/>
<path opacity="0.3" d="M35.84 39.66C39.65 38.95 42.82 38.82 45.28 38.83C44.76 38.37 44.25 37.91 43.72 37.46C40.18 34.48 35.2 31.66 31.21 34C28.23 35.75 27.35 39.59 26.79 43C25.9 48.46 25.08 53.94 24.36 59.43C26.73 50.62 30.55 40.64 35.84 39.66Z" fill="#FFE4BA"/>
<path opacity="0.15" d="M139.51 178.46C154.07 157.9 157.45 131.07 154.07 106.11C153.49 101.84 152.72 97.62 151.81 93.42C151.39 127.66 126.52 185.48 90.44 189.05C61.98 191.87 43.5 177.26 35.44 168.96C43.38 184.88 56.59 198.94 73.6 204.14C97.7 211.51 124.95 199.01 139.51 178.46Z" fill="#53476D"/>
<path opacity="0.3" d="M126.49 21.39C124.42 16.67 120.72 11.45 115.89 12.77C112.02 13.83 110.6 18.46 109.8 22.39C108.94 26.6 108.08 30.82 107.22 35.03C110.42 29.07 117.28 19.13 126.49 21.39Z" fill="#FFE4BA"/>
<path opacity="0.3" d="M82.69 10.92C81.85 9.95 81.01 8.97 80.15 8.02C78.06 5.72 75.54 3.32 72.44 3.34C69.66 3.36 67.22 5.45 65.96 7.93C64.7 10.41 64.38 13.25 64.09 16.02C64.09 16.02 62.68 29.26 61.5 40.37C64.22 30.51 70.72 12.98 82.69 10.92Z" fill="#FFE4BA"/>
<path d="M105.22 44.86C98.63 31.49 90.16 19.05 80.14 8.00999C78.05 5.70999 75.53 3.30999 72.43 3.32999C69.65 3.34999 67.21 5.43999 65.95 7.91999C64.69 10.4 64.37 13.24 64.08 16.01L59.9 55.28C55.32 48.66 49.87 42.65 43.72 37.46C40.18 34.48 35.2 31.66 31.21 34C28.23 35.75 27.35 39.59 26.79 43C22.99 66.35 20.33 90.1 21.87 113.71C23.26 135.02 27.44 152.79 35.37 168.78C43.3 184.77 56.55 198.9 73.61 204.13C97.7 211.5 124.95 199 139.51 178.45C154.07 157.89 157.46 131.06 154.07 106.1C150.69 81.14 141.14 57.49 131.68 34.14L126.83 22.17C124.84 17.27 121 11.37 115.9 12.77C112.03 13.83 110.61 18.46 109.81 22.39C108.27 29.88 106.74 37.37 105.22 44.86Z" stroke="#53476D" stroke-width="3" stroke-miterlimit="10" stroke-linecap="round" stroke-linejoin="round"/>
<path d="M64.77 119.31C68.75 115.91 71.6 110.78 72.3 104.78C73.64 93.24 66.52 82.93 56.4 81.76C46.28 80.59 37 88.99 35.66 100.54C35.39 102.84 35.48 105.09 35.84 107.23C40.64 107.52 57.34 109.25 64.77 119.31Z" fill="#53476D"/>
<path d="M34.51 107.16C34.51 107.16 59.22 107.55 66.42 122" stroke="#53476D" stroke-width="3" stroke-miterlimit="10" stroke-linecap="round" stroke-linejoin="round"/>
<path d="M59.32 93.98C59.82 89.66 56.72 85.75 52.4 85.25C48.08 84.75 44.17 87.85 43.67 92.17C43.17 96.49 46.27 100.4 50.59 100.9C54.91 101.4 58.82 98.3 59.32 93.98Z" fill="white"/>
<path d="M64.96 106.1C65.22 103.84 63.6 101.8 61.35 101.54C59.09 101.28 57.05 102.9 56.79 105.15C56.53 107.41 58.15 109.45 60.4 109.71C62.66 109.98 64.7 108.36 64.96 106.1Z" fill="white"/>
<path d="M114.13 113.19C110.42 109.49 107.98 104.15 107.76 98.12C107.33 86.51 115.23 76.79 125.4 76.41C135.58 76.03 144.18 85.14 144.61 96.75C144.7 99.06 144.44 101.3 143.91 103.4C139.11 103.32 122.32 103.75 114.13 113.19Z" fill="#53476D"/>
<path d="M145.24 103.44C145.24 103.44 120.57 101.9 112.27 115.74" stroke="#53476D" stroke-width="3" stroke-miterlimit="10" stroke-linecap="round" stroke-linejoin="round"/>
<path d="M112.24 89.36C112.08 85.01 115.47 81.36 119.82 81.2C124.17 81.04 127.82 84.43 127.98 88.78C128.14 93.13 124.75 96.78 120.4 96.94C116.05 97.1 112.4 93.71 112.24 89.36Z" fill="white"/>
<path d="M129.12 97.22C129.04 94.95 130.81 93.04 133.08 92.96C135.35 92.88 137.26 94.65 137.34 96.92C137.42 99.19 135.65 101.1 133.38 101.18C131.11 101.26 129.2 99.49 129.12 97.22Z" fill="white"/>
<path d="M74.04 116.41C74.04 116.41 86.94 113.61 104.88 113.85C104.88 113.85 108.05 132.68 92.14 134.45C76.23 136.22 74.04 116.41 74.04 116.41Z" fill="#53476D"/>
<path d="M74.04 116.41C74.04 116.41 74.28 118.59 75.19 121.44C79.36 122.9 94.14 127.15 105.11 118.93C105.25 116.01 104.88 113.85 104.88 113.85C86.94 113.61 74.04 116.41 74.04 116.41Z" fill="white"/>
<path d="M92.14 134.45C98.25 133.77 101.54 130.57 103.28 126.9C88.57 121.94 80.35 130.36 80.27 130.44C82.96 133.18 86.76 135.05 92.14 134.45Z" fill="white"/>
<path d="M74.04 116.41C74.04 116.41 86.94 113.61 104.88 113.85C104.88 113.85 108.05 132.68 92.14 134.45C76.23 136.22 74.04 116.41 74.04 116.41Z" stroke="#53476D" stroke-width="3" stroke-miterlimit="10" stroke-linecap="round" stroke-linejoin="round"/>
<path d="M79.52 136.24C79.52 136.24 93.18 148.4 105.14 133.92" stroke="#53476D" stroke-width="3" stroke-miterlimit="10" stroke-linecap="round" stroke-linejoin="round"/>
</svg>
