<svg width="175" height="210" viewBox="0 0 175 210" fill="none" xmlns="http://www.w3.org/2000/svg">
<g clip-path="url(#clip0_5_1730)">
<path d="M109.26 46.14C102.85 32.68 94.56 20.12 84.69 8.95001C82.64 6.62001 80.14 4.19001 77.04 4.17001C74.26 4.15001 71.79 6.20001 70.5 8.67001C69.2 11.13 68.85 13.97 68.52 16.73L63.8 55.94C59.31 49.26 53.94 43.17 47.87 37.9C44.38 34.87 39.43 31.98 35.41 34.27C32.4 35.98 31.47 39.8 30.87 43.21C26.75 66.51 23.77 90.22 24.98 113.85C26.08 135.18 30.02 153 37.73 169.1C45.44 185.2 58.49 199.51 75.49 204.97C99.47 212.67 126.89 200.55 141.73 180.19C156.57 159.83 160.32 133.05 157.28 108.05C154.24 83.04 145.02 59.26 135.87 35.79L131.18 23.75C129.26 18.82 125.49 12.87 120.38 14.2C116.5 15.21 115.01 19.82 114.16 23.74C112.52 31.2 110.89 38.67 109.26 46.14Z" fill="#E47574"/>
<mask id="mask0_5_1730" style="mask-type:luminance" maskUnits="userSpaceOnUse" x="-81" y="-6" width="204" height="134">
<path d="M-38.5184 42.2175C-52.0648 48.4424 -64.7371 56.5595 -76.0412 66.2755C-78.3991 68.2934 -80.8631 70.7598 -80.9256 73.8592C-80.9837 76.6387 -78.9677 79.1365 -76.5156 80.4602C-74.0737 81.7938 -71.2388 82.1827 -68.4836 82.5505L-29.3421 87.8072C-36.083 92.2052 -42.2459 97.4912 -47.5986 103.488C-50.6761 106.937 -53.6336 111.846 -51.3989 115.897C-49.7303 118.931 -45.9234 119.913 -42.522 120.559C-19.2808 124.998 4.38602 128.303 28.0302 127.417C49.3732 126.609 67.2454 122.914 83.4494 115.425C99.6534 107.936 114.141 95.0835 119.833 78.16C127.861 54.2879 116.118 26.7046 95.9631 11.5872C75.8084 -3.53026 49.0825 -7.64678 24.0433 -4.94958C-1.00582 -2.25253 -24.9098 6.64078 -48.5028 15.4683L-60.6058 19.9929C-65.5616 21.8452 -71.5627 25.5333 -70.3028 30.661C-69.3461 34.5544 -64.757 36.1074 -60.849 37.0111C-53.4122 38.7531 -45.9653 40.4853 -38.5184 42.2175Z" fill="white"/>
</mask>
<g mask="url(#mask0_5_1730)">
<path d="M46.6535 119.271C46.7194 114.461 40.8322 110.481 33.5041 110.38C26.176 110.28 20.182 114.098 20.1161 118.907C20.0502 123.717 25.9374 127.698 33.2655 127.798C40.5935 127.899 46.5876 124.081 46.6535 119.271Z" fill="#F7A3A3"/>
</g>
<mask id="mask1_5_1730" style="mask-type:luminance" maskUnits="userSpaceOnUse" x="24" y="4" width="135" height="204">
<path d="M109.26 46.14C102.85 32.68 94.56 20.12 84.69 8.95001C82.64 6.62001 80.14 4.19001 77.04 4.17001C74.26 4.15001 71.79 6.20001 70.5 8.67001C69.2 11.13 68.85 13.97 68.52 16.73L63.8 55.94C59.31 49.26 53.94 43.17 47.87 37.9C44.38 34.87 39.43 31.98 35.41 34.27C32.4 35.98 31.47 39.8 30.87 43.21C26.75 66.51 23.77 90.22 24.98 113.85C26.08 135.18 30.02 153 37.73 169.1C45.44 185.2 58.49 199.51 75.49 204.97C99.47 212.67 126.89 200.55 141.73 180.19C156.57 159.83 160.32 133.05 157.28 108.05C154.24 83.04 145.02 59.26 135.87 35.79L131.18 23.75C129.26 18.82 125.49 12.87 120.38 14.2C116.5 15.21 115.01 19.82 114.16 23.74C112.52 31.2 110.89 38.67 109.26 46.14Z" fill="white"/>
</mask>
<g mask="url(#mask1_5_1730)">
<path d="M162.68 116.02C162.11 111.24 155.75 108.07 148.48 108.94C141.2 109.8 135.76 114.38 136.33 119.15C136.9 123.93 143.26 127.1 150.53 126.23C157.8 125.36 163.25 120.8 162.68 116.02Z" fill="#F7A3A3"/>
</g>
<path d="M63.8 55.94C64.85 57.51 65.86 59.11 66.82 60.75" stroke="#53476D" stroke-width="3" stroke-miterlimit="10" stroke-linecap="round" stroke-linejoin="round"/>
<path d="M107.4 54.66C108.02 51.82 108.64 48.98 109.26 46.14" stroke="#53476D" stroke-width="3" stroke-miterlimit="10" stroke-linecap="round" stroke-linejoin="round"/>
<path d="M94.68 30.51C96.29 30.38 97.51 28.89 97.88 27.32C97.96 26.99 98 26.66 98.02 26.33C93.98 20.25 89.52 14.43 84.69 8.96002C82.64 6.63002 80.14 4.20002 77.04 4.18002C74.26 4.16002 71.79 6.21002 70.5 8.68002C69.2 11.14 68.85 13.98 68.52 16.74C68.52 16.74 67.83 22.43 66.99 29.48C67.46 30.76 67.97 31.93 68.52 33.07C68.95 33.96 69.51 34.92 70.47 35.2C71.29 35.44 72.19 35.07 72.8 34.48C73.41 33.89 73.79 33.09 74.12 32.31C75.49 29.11 76.44 25.73 77.21 21.65C78.9 25.37 80.73 29.03 82.67 32.63C83.17 33.56 84.01 34.63 85.02 34.34C85.91 34.09 86.18 32.99 86.28 32.07C86.56 29.5 86.67 26.91 86.61 24.32C87.91 26.06 89.43 27.64 91.11 29C92.15 29.83 93.36 30.62 94.68 30.51Z" fill="#D25454"/>
<path d="M138.91 171.16C136.54 173.06 136.1 176.93 137.98 179.31C138.73 180.26 139.79 180.89 140.96 181.21C141.22 180.87 141.48 180.54 141.73 180.19C143.66 177.54 145.41 174.77 146.97 171.92C145.02 169.67 141.24 169.29 138.91 171.16Z" fill="#D25454"/>
<path d="M111.55 35.64C111.64 36.49 111.75 37.33 111.88 38.17C112.03 39.08 112.25 40.09 112.99 40.64C113.76 41.2 114.88 41.07 115.69 40.57C116.5 40.07 117.07 39.26 117.59 38.46C119.43 35.66 120.99 32.69 123.03 29.33C123.91 31.85 124.86 34.34 125.88 36.8C126.29 37.78 127.06 38.96 128.1 38.72C128.73 38.57 129.11 37.96 129.41 37.39C130.9 34.59 132.11 31.64 133.05 28.61L131.17 23.77C129.25 18.84 125.48 12.89 120.37 14.22C116.49 15.23 115 19.84 114.15 23.76C113.29 27.71 112.42 31.67 111.55 35.64Z" fill="#D25454"/>
<path d="M141.14 153.95C139.09 155.75 138.79 159.22 140.51 161.34C142.23 163.46 145.7 163.87 147.86 162.2C150.02 160.53 150.96 156.68 148.56 154.23C146.65 152.29 143.19 152.15 141.14 153.95Z" fill="#D25454"/>
<path d="M38.18 148.29C36.67 144.43 31.87 145.95 30.24 148.06C30.18 148.14 30.14 148.22 30.09 148.3C31 151.7 32.03 155 33.2 158.23C33.35 158.26 33.5 158.28 33.65 158.29C35.34 158.36 36.82 157.07 37.66 155.6C38.9 153.41 39.1 150.64 38.18 148.29Z" fill="#D25454"/>
<path d="M40.9 163.72C40.13 166.26 41.63 169.27 44.11 170.19C46.6 171.11 49.69 169.8 50.76 167.38C51.83 164.95 50.98 161.03 47.16 160.12C44.58 159.51 41.67 161.19 40.9 163.72Z" fill="#D25454"/>
<path d="M28.32 58.86C28.55 58.81 28.77 58.73 28.96 58.6C29.45 58.27 29.78 57.75 30.07 57.25C31.33 55.11 32.32 52.81 33.01 50.42C33.13 52.81 33.59 55.18 34.36 57.45C34.67 58.36 35.26 59.41 36.21 59.39C37.33 59.36 37.79 57.96 37.94 56.85C38.31 54.17 38.67 51.48 39.66 48.54C42.03 50.46 44.59 52.15 47.3 53.55C48.26 54.05 49.48 54.5 50.37 53.88C51.31 53.23 51.25 51.84 51.07 50.71C50.39 46.47 49.41 42.28 48.16 38.17C48.06 38.08 47.96 37.99 47.86 37.9C44.37 34.87 39.42 31.98 35.4 34.27C32.39 35.98 31.46 39.8 30.86 43.21C29.95 48.41 29.09 53.63 28.32 58.86Z" fill="#D25454"/>
<path d="M102.04 155.9C91.2 155.39 80.11 156.66 70.46 161.63C66.9 163.46 63.48 165.74 61.01 168.9C58.55 172.06 57.14 176.2 57.93 180.13C59.06 185.71 64.18 189.54 69.29 192.04C82.62 198.56 98.56 199.53 112.58 194.68C116.71 193.25 120.74 191.3 123.97 188.36C127.2 185.42 129.6 181.39 129.95 177.03C130.4 171.49 127.45 166.04 123.16 162.52C118.87 159.02 112.33 156.38 102.04 155.9Z" fill="#F7A3A3"/>
<path opacity="0.3" d="M39.97 39.99C43.79 39.33 46.96 39.25 49.42 39.29C48.91 38.82 48.4 38.36 47.88 37.9C44.39 34.87 39.44 31.98 35.42 34.27C32.41 35.98 31.48 39.8 30.88 43.21C29.92 48.66 29.02 54.12 28.22 59.61C30.71 50.83 34.66 40.9 39.97 39.99Z" fill="#FFE4BA"/>
<path opacity="0.15" d="M141.72 180.19C156.56 159.83 160.31 133.05 157.27 108.05C156.75 103.77 156.04 99.54 155.19 95.33C154.3 129.56 128.64 187.03 92.52 190.11C64.02 192.54 45.74 177.68 37.8 169.27C45.52 185.3 58.54 199.53 75.47 204.97C99.46 212.67 126.88 200.55 141.72 180.19Z" fill="#53476D"/>
<path opacity="0.3" d="M130.86 22.96C128.86 18.21 125.23 12.94 120.38 14.2C116.5 15.21 115.01 19.82 114.16 23.74C113.24 27.94 112.33 32.14 111.41 36.34C114.68 30.42 121.68 20.58 130.86 22.96Z" fill="#FFE4BA"/>
<path opacity="0.3" d="M87.2 11.89C86.37 10.91 85.55 9.92001 84.7 8.95001C82.65 6.62001 80.15 4.19001 77.05 4.17001C74.27 4.15001 71.8 6.20001 70.51 8.67001C69.21 11.13 68.86 13.97 68.53 16.73C68.53 16.73 66.94 29.95 65.61 41.04C68.47 31.23 75.2 13.8 87.2 11.89Z" fill="#FFE4BA"/>
<path d="M109.26 46.14C102.85 32.68 94.56 20.12 84.69 8.95001C82.64 6.62001 80.14 4.19001 77.04 4.17001C74.26 4.15001 71.79 6.20001 70.5 8.67001C69.2 11.13 68.85 13.97 68.52 16.73L63.8 55.94C59.31 49.26 53.94 43.17 47.87 37.9C44.38 34.87 39.43 31.98 35.41 34.27C32.4 35.98 31.47 39.8 30.87 43.21C26.75 66.51 23.77 90.22 24.98 113.85C26.08 135.18 30.02 153 37.73 169.1C45.44 185.2 58.49 199.51 75.49 204.97C99.47 212.67 126.89 200.55 141.73 180.19C156.57 159.83 160.32 133.05 157.28 108.05C154.24 83.04 145.02 59.26 135.87 35.79L131.18 23.75C129.26 18.82 125.49 12.87 120.38 14.2C116.5 15.21 115.01 19.82 114.16 23.74C112.52 31.2 110.89 38.67 109.26 46.14Z" stroke="#53476D" stroke-width="3" stroke-miterlimit="10" stroke-linecap="round" stroke-linejoin="round"/>
<path d="M108.12 129.85C108.12 129.85 95.19 132.47 77.25 131.98C77.25 131.98 74.34 113.11 90.27 111.55C106.2 110 108.12 129.85 108.12 129.85Z" fill="#53476D"/>
<path d="M108.12 129.85C108.12 129.85 107.91 127.66 107.04 124.8C102.89 123.29 88.17 118.83 77.09 126.9C76.91 129.82 77.25 131.98 77.25 131.98C95.18 132.47 108.12 129.85 108.12 129.85Z" fill="white"/>
<path d="M90.27 111.56C84.16 112.16 80.82 115.31 79.03 118.96C93.68 124.12 102.01 115.81 102.09 115.73C99.44 112.95 95.66 111.03 90.27 111.56Z" fill="white"/>
<path d="M108.12 129.85C108.12 129.85 95.19 132.47 77.25 131.98C77.25 131.98 74.34 113.11 90.27 111.55C106.2 110 108.12 129.85 108.12 129.85Z" stroke="#53476D" stroke-width="3" stroke-miterlimit="10" stroke-linecap="round" stroke-linejoin="round"/>
<path d="M77.04 137.48C77.04 137.48 93.18 139.84 108.12 136.76" stroke="#53476D" stroke-width="3" stroke-miterlimit="10" stroke-linecap="round" stroke-linejoin="round"/>
<path d="M46.71 92C36.6 97.03 34.51 110.92 40.52 119.94C45.34 119.07 56.73 117.81 67.7 122.52C72.43 116.11 72.48 105.54 68.51 98.22L46.71 92Z" fill="#53476D"/>
<path d="M38.14 120.45C38.14 120.45 55.71 115.68 71 124.13" stroke="#53476D" stroke-width="3" stroke-miterlimit="10" stroke-linecap="round" stroke-linejoin="round"/>
<path d="M34.42 88.49L75.89 100.33" stroke="#53476D" stroke-width="3" stroke-miterlimit="10" stroke-linecap="round" stroke-linejoin="round"/>
<path d="M55.57 101.74C54.89 98.03 51.33 95.57 47.62 96.25C43.91 96.93 41.45 100.49 42.13 104.2C42.81 107.91 46.37 110.37 50.08 109.69C53.79 109.01 56.25 105.46 55.57 101.74Z" fill="white"/>
<path d="M64.56 112.98C64.16 110.79 62.06 109.34 59.87 109.74C57.68 110.14 56.23 112.24 56.63 114.43C57.03 116.62 59.13 118.07 61.32 117.67C63.51 117.27 64.96 115.17 64.56 112.98Z" fill="white"/>
<path d="M137.04 90.56C147.15 95.59 149.24 109.48 143.23 118.5C138.41 117.63 127.02 116.37 116.05 121.08C111.32 114.67 111.27 104.1 115.24 96.78L137.04 90.56Z" fill="#53476D"/>
<path d="M145.61 119.01C145.61 119.01 128.04 114.24 112.75 122.69" stroke="#53476D" stroke-width="3" stroke-miterlimit="10" stroke-linecap="round" stroke-linejoin="round"/>
<path d="M149.33 87.05L107.86 98.89" stroke="#53476D" stroke-width="3" stroke-miterlimit="10" stroke-linecap="round" stroke-linejoin="round"/>
<path d="M117.01 102.76C117.69 99.05 121.25 96.59 124.96 97.27C128.67 97.95 131.13 101.51 130.45 105.22C129.77 108.93 126.21 111.39 122.5 110.71C118.79 110.03 116.33 106.47 117.01 102.76Z" fill="white"/>
<path d="M132.52 110.74C132.92 108.55 135.02 107.1 137.21 107.5C139.4 107.9 140.85 110 140.45 112.19C140.05 114.38 137.95 115.83 135.76 115.43C133.57 115.03 132.12 112.93 132.52 110.74Z" fill="white"/>
<path d="M112.4 67.02C112.4 67.02 120.36 67.98 118.51 59.53" stroke="#53476D" stroke-width="3" stroke-miterlimit="10" stroke-linecap="round" stroke-linejoin="round"/>
<path d="M130.68 64.79C130.68 64.79 123.18 67.63 122.95 58.99" stroke="#53476D" stroke-width="3" stroke-miterlimit="10" stroke-linecap="round" stroke-linejoin="round"/>
<path d="M112.95 71.48C112.95 71.48 120.45 68.64 120.68 77.28" stroke="#53476D" stroke-width="3" stroke-miterlimit="10" stroke-linecap="round" stroke-linejoin="round"/>
<path d="M131.23 69.26C131.23 69.26 123.27 68.3 125.12 76.75" stroke="#53476D" stroke-width="3" stroke-miterlimit="10" stroke-linecap="round" stroke-linejoin="round"/>
<path d="M100.63 80.01C100.63 80.01 105.87 80.64 104.65 75.08" stroke="#53476D" stroke-width="3" stroke-miterlimit="10" stroke-linecap="round" stroke-linejoin="round"/>
<path d="M112.67 78.55C112.67 78.55 107.73 80.42 107.58 74.73" stroke="#53476D" stroke-width="3" stroke-miterlimit="10" stroke-linecap="round" stroke-linejoin="round"/>
<path d="M100.99 82.95C100.99 82.95 105.93 81.08 106.08 86.77" stroke="#53476D" stroke-width="3" stroke-miterlimit="10" stroke-linecap="round" stroke-linejoin="round"/>
<path d="M113.03 81.49C113.03 81.49 107.79 80.86 109.01 86.42" stroke="#53476D" stroke-width="3" stroke-miterlimit="10" stroke-linecap="round" stroke-linejoin="round"/>
<path d="M129.24 148.79C117.35 149.83 105.49 151.32 93.71 153.24C91.57 153.59 88.79 154.87 89.35 156.97C89.71 158.31 91.28 158.86 92.64 159.18C103.15 161.65 113.92 163.05 124.72 163.35" fill="#E47574"/>
<path d="M129.24 148.79C117.35 149.83 105.49 151.32 93.71 153.24C91.57 153.59 88.79 154.87 89.35 156.97C89.71 158.31 91.28 158.86 92.64 159.18C103.15 161.65 113.92 163.05 124.72 163.35" stroke="#53476D" stroke-width="3" stroke-miterlimit="10" stroke-linecap="round" stroke-linejoin="round"/>
<path d="M65.53 164.47C76.56 163.51 87.55 162.14 98.48 160.35C100.51 160.02 103.05 159.12 103.1 157.06C103.15 155.01 100.68 153.99 98.69 153.56C84.86 150.54 70.8 148.57 56.67 147.68" fill="#E47574"/>
<path d="M65.53 164.47C76.56 163.51 87.55 162.14 98.48 160.35C100.51 160.02 103.05 159.12 103.1 157.06C103.15 155.01 100.68 153.99 98.69 153.56C84.86 150.54 70.8 148.57 56.67 147.68" stroke="#53476D" stroke-width="3" stroke-miterlimit="10" stroke-linecap="round" stroke-linejoin="round"/>
</g>
<defs>
<clipPath id="clip0_5_1730">
<rect width="175" height="210" fill="white"/>
</clipPath>
</defs>
</svg>
