<svg width="175" height="210" viewBox="0 0 175 210" fill="none" xmlns="http://www.w3.org/2000/svg">
<g clip-path="url(#clip0_5_354)">
<path d="M146.39 151.33C148.59 163.69 151.15 175.99 154.06 188.2C154.56 190.29 155.54 192.8 157.68 192.98C159.02 193.09 160.25 192.12 160.87 190.93C161.49 189.74 161.61 188.36 161.72 187.03C162.99 171.22 163.32 155.34 162.69 139.49L146.39 151.33Z" fill="#F3AC95"/>
<path opacity="0.15" d="M162.64 171.85C163.09 161.07 163.12 150.27 162.69 139.49L146.39 151.33C148.37 162.44 150.65 173.49 153.2 184.48C157.58 180.52 160.59 176.07 162.64 171.85Z" fill="#53476D"/>
<path d="M146.39 151.33C148.59 163.69 151.15 175.99 154.06 188.2C154.56 190.29 155.54 192.8 157.68 192.98C159.02 193.09 160.25 192.12 160.87 190.93C161.49 189.74 161.61 188.36 161.72 187.03C162.99 171.22 163.32 155.34 162.69 139.49L146.39 151.33Z" stroke="#53476D" stroke-width="3" stroke-miterlimit="10" stroke-linecap="round" stroke-linejoin="round"/>
<path d="M36.5 73.56C31.71 61.75 27.49 49.7 23.86 37.48C22.18 31.83 20.98 24.81 25.33 20.84C27.84 18.54 31.61 18.07 34.94 18.8C38.26 19.53 41.25 21.32 44.13 23.12C55.72 30.34 66.88 38.28 77.51 46.86C73.96 38.67 71.26 30.1 69.47 21.36C68.8 18.11 68.45 14.23 70.88 11.97C73.58 9.45 77.92 10.56 81.34 11.95C112.64 24.68 139.39 49.21 153.33 79.99C161.29 97.57 165.87 116.9 164.71 136.17C163.55 155.44 155.78 174.86 140.97 187.25C127.8 198.27 110.18 202.91 93.01 203.16C80.2 203.35 66.94 201.11 56.28 193.98C39.2 182.54 32.14 161.29 26.2 141.6C19.09 118.04 11.98 94.48 4.87001 70.92C3.40001 66.05 2.63001 59.39 7.21001 57.16C10.26 55.67 13.85 57.28 16.78 58.98C23.85 63.11 30.47 68.01 36.5 73.56Z" fill="#F3AC95"/>
<mask id="mask0_5_354" style="mask-type:luminance" maskUnits="userSpaceOnUse" x="3" y="10" width="162" height="194">
<path d="M36.5 73.56C31.71 61.75 27.49 49.7 23.86 37.48C22.18 31.83 20.98 24.81 25.33 20.84C27.84 18.54 31.61 18.07 34.94 18.8C38.26 19.53 41.25 21.32 44.13 23.12C55.72 30.34 66.88 38.28 77.51 46.86C73.96 38.67 71.26 30.1 69.47 21.36C68.8 18.11 68.45 14.23 70.88 11.97C73.58 9.45 77.92 10.56 81.34 11.95C112.64 24.68 139.39 49.21 153.33 79.99C161.29 97.57 165.87 116.9 164.71 136.17C163.55 155.44 155.78 174.86 140.97 187.25C127.8 198.27 110.18 202.91 93.01 203.16C80.2 203.35 66.94 201.11 56.28 193.98C39.2 182.54 32.14 161.29 26.2 141.6C19.09 118.04 11.98 94.48 4.87001 70.92C3.40001 66.05 2.63001 59.39 7.21001 57.16C10.26 55.67 13.85 57.28 16.78 58.98C23.85 63.11 30.47 68.01 36.5 73.56Z" fill="white"/>
</mask>
<g mask="url(#mask0_5_354)">
<path d="M59.55 143.26C52 141.9 46.61 136.78 47.51 131.82C48.41 126.87 55.25 123.96 62.79 125.33C70.34 126.69 75.73 131.81 74.83 136.77C73.94 141.72 67.09 144.63 59.55 143.26Z" fill="#FFE4B8"/>
</g>
<mask id="mask1_5_354" style="mask-type:luminance" maskUnits="userSpaceOnUse" x="-3" y="64" width="191" height="170">
<path d="M35.9282 142.663C25.5395 135.282 15.5023 127.391 5.87118 119.041C1.41677 115.18 -3.3696 109.907 -1.83679 104.221C-0.957316 100.932 1.96845 98.5089 5.16849 97.3338C8.36011 96.1641 11.8435 96.0656 15.2395 96.0346C28.8932 95.8898 42.5715 96.5833 56.1471 98.1013C48.7504 93.1052 41.8659 87.3316 35.6572 80.9254C33.3448 78.5456 30.9635 75.4625 31.797 72.2505C32.7184 68.6741 36.9743 67.2763 40.6051 66.6093C73.839 60.512 109.582 66.8097 137.885 85.2648C154.049 95.8064 168.304 109.641 177.687 126.511C187.071 143.381 190.962 163.932 185.138 182.342C179.96 198.714 167.599 212.1 153.258 221.544C142.56 228.592 130.176 233.833 117.355 233.554C96.8031 233.092 79.4247 218.973 63.8294 205.566C45.1667 189.526 26.5041 173.485 7.8414 157.445C3.98345 154.129 -0.246822 148.928 2.4155 144.586C4.18579 141.689 8.07821 141.116 11.4626 140.974C19.644 140.655 27.8601 141.226 35.9282 142.663Z" fill="white"/>
</mask>
<g mask="url(#mask1_5_354)">
<path d="M159.552 116.765C166.015 112.643 169.061 105.863 166.356 101.621C163.65 97.3787 156.218 97.2814 149.755 101.403C143.292 105.525 140.246 112.305 142.951 116.547C145.656 120.789 153.089 120.886 159.552 116.765Z" fill="#FFE4B8"/>
</g>
<path d="M41.96 78.94C40.2 77.09 38.38 75.29 36.5 73.56" stroke="#53476D" stroke-width="3" stroke-miterlimit="10" stroke-linecap="round" stroke-linejoin="round"/>
<path d="M52.41 176.61C54.38 173.5 54.74 168.36 50.75 165.1C48.17 162.99 44.34 162.55 41.35 164.02C38.98 165.18 37.25 167.5 36.67 170.08C38.42 173.63 40.37 177.03 42.59 180.21C42.65 180.23 42.71 180.26 42.77 180.28C46.32 181.29 50.44 179.73 52.41 176.61Z" fill="#D9876B"/>
<path d="M93.46 24.65C92.64 21.59 91.47 18.62 89.99 15.81C87.15 14.42 84.26 13.12 81.33 11.93C77.91 10.54 73.57 9.43 70.87 11.95C68.44 14.21 68.8 18.09 69.46 21.34C70.63 27.06 72.2 32.69 74.13 38.2C74.57 38.72 74.88 39.27 75.24 39.77C76.08 40.93 77.61 41.88 78.9 41.26C80.12 40.67 80.38 39.06 80.4 37.7C80.43 34.19 79.83 30.7 79.1 26.99C82.69 27.92 86.34 28.58 90.02 28.98C91.05 29.09 92.22 29.14 93 28.45C94.01 27.56 93.81 25.95 93.46 24.65Z" fill="#ADA4C0"/>
<path d="M27.11 79.08C27.89 78.51 27.58 77.3 27.18 76.42C26.03 73.91 24.74 71.46 23.21 68.34C24.16 69.09 25.16 69.87 26.35 70.06C27.54 70.26 28.96 69.64 29.22 68.46C29.3 68.08 29.25 67.7 29.13 67.34C25.2 64.29 21.07 61.5 16.78 58.99C13.85 57.28 10.26 55.68 7.21001 57.17C2.64001 59.4 3.40001 66.06 4.87001 70.94C6.38001 75.94 7.89001 80.93 9.39001 85.93C10.84 87.15 12.34 88.3 13.91 89.35C14.54 89.77 15.31 90.18 16 89.88C16.86 89.51 16.95 88.35 16.89 87.42C16.66 83.64 16.18 79.88 15.71 74.91C18.78 76.35 21.89 77.71 25.03 78.99C25.71 79.25 26.52 79.5 27.11 79.08Z" fill="#ADA4C0"/>
<path d="M61.3 184.36C59.4 186.11 59.22 189.4 60.92 191.35C62.62 193.3 65.91 193.56 67.9 191.91C69.89 190.26 70.44 186.79 68.3 184.58C66.5 182.71 63.2 182.61 61.3 184.36Z" fill="#D9876B"/>
<path d="M148.04 140.74C146.14 142.49 145.96 145.78 147.66 147.73C149.36 149.68 152.65 149.94 154.64 148.29C156.63 146.64 157.18 143.17 155.04 140.96C153.24 139.09 149.94 138.99 148.04 140.74Z" fill="#D9876B"/>
<path d="M79.13 172.79C79.99 170.65 79.9 167.47 76.85 165.51C74.68 164.12 71.61 164.34 69.67 166.04C67.73 167.74 67.1 170.76 68.2 173.09C69.18 175.18 71.46 176.58 73.77 176.52C76.06 176.45 78.26 174.93 79.13 172.79Z" fill="#D9876B"/>
<path d="M56.29 34.62C55.39 32.83 54.49 31.04 53.6 29.25C50.48 27.16 47.32 25.11 44.13 23.12C41.24 21.32 38.26 19.54 34.94 18.8C31.62 18.07 27.85 18.54 25.33 20.84C20.98 24.81 22.19 31.84 23.86 37.48C25.55 43.17 27.38 48.82 29.32 54.42C29.46 54.54 29.6 54.68 29.76 54.78C30.86 55.49 32.52 55.5 33.29 54.44C33.76 53.8 33.79 52.96 33.8 52.17C33.86 47.04 33.52 41.9 33.49 36.21L44.4 44.39C45.11 44.92 46.05 45.48 46.82 45.03C47.6 44.58 47.58 43.45 47.4 42.56C46.8 39.6 45.65 36.76 44.43 33.97L53.76 37.53C54.64 37.87 55.76 38.16 56.43 37.5C57.18 36.79 56.75 35.54 56.29 34.62Z" fill="#ADA4C0"/>
<path d="M85.17 53.23C82.65 51.07 80.09 48.94 77.51 46.85" stroke="#53476D" stroke-width="3" stroke-miterlimit="10" stroke-linecap="round" stroke-linejoin="round"/>
<path d="M129.93 189.29C120.6 196.33 108.55 199.67 96.92 198.44C92.94 198.02 88.73 196.91 86.16 193.84C83.93 191.17 83.36 187.38 84.01 183.96C84.66 180.54 86.4 177.42 88.37 174.55C97.24 161.67 111.6 152.71 127.06 150.4C133.09 149.5 140.16 149.97 143.95 154.75C147.52 159.26 146.71 165.86 144.5 171.16C142.03 177.07 138.46 182.85 129.93 189.29Z" fill="#FBC8B9"/>
<path opacity="0.3" d="M25.33 20.84C20.98 24.81 22.19 31.84 23.86 37.48C25.01 41.35 26.24 45.2 27.51 49.04C26.86 39.42 27.22 25.8 34.4 25.15C38.9 24.75 41.87 23.85 43.84 22.93C41.04 21.19 38.15 19.5 34.94 18.79C31.61 18.07 27.84 18.54 25.33 20.84Z" fill="#FFE4BA"/>
<path opacity="0.3" d="M70.87 11.96C68.44 14.22 68.8 18.1 69.46 21.35C70.1 24.48 70.86 27.59 71.74 30.67C71.4 23.88 72.83 13.87 83.88 13C83.03 12.64 82.19 12.28 81.34 11.93C77.92 10.54 73.58 9.44 70.87 11.96Z" fill="#FFE4BA"/>
<path opacity="0.15" d="M114.45 188.05C71.25 195.98 45.93 177.74 35.26 167.09C40.13 177.82 46.59 187.48 56.29 193.96C66.94 201.09 80.2 203.33 93.02 203.14C110.2 202.89 127.81 198.25 140.98 187.23C155.79 174.84 163.56 155.42 164.72 136.15C165.85 117.33 161.5 98.46 153.88 81.22C157.2 117.1 156.83 180.27 114.45 188.05Z" fill="#53476D"/>
<path opacity="0.3" d="M8.23001 82.08C7.82001 72.96 9.30001 61.53 18.95 60.29C18.23 59.85 17.51 59.41 16.78 58.98C13.85 57.27 10.26 55.67 7.21001 57.16C2.64001 59.39 3.40001 66.05 4.87001 70.93C5.99001 74.64 7.11001 78.36 8.23001 82.08Z" fill="#FFE4BA"/>
<path d="M36.5 73.56C31.71 61.75 27.49 49.7 23.86 37.48C22.18 31.83 20.98 24.81 25.33 20.84C27.84 18.54 31.61 18.07 34.94 18.8C38.26 19.53 41.25 21.32 44.13 23.12C55.72 30.34 66.88 38.28 77.51 46.86C73.96 38.67 71.26 30.1 69.47 21.36C68.8 18.11 68.45 14.23 70.88 11.97C73.58 9.45 77.92 10.56 81.34 11.95C112.64 24.68 139.39 49.21 153.33 79.99C161.29 97.57 165.87 116.9 164.71 136.17C163.55 155.44 155.78 174.86 140.97 187.25C127.8 198.27 110.18 202.91 93.01 203.16C80.2 203.35 66.94 201.11 56.28 193.98C39.2 182.54 32.14 161.29 26.2 141.6C19.09 118.04 11.98 94.48 4.87001 70.92C3.40001 66.05 2.63001 59.39 7.21001 57.16C10.26 55.67 13.85 57.28 16.78 58.98C23.85 63.11 30.47 68.01 36.5 73.56Z" stroke="#53476D" stroke-width="3" stroke-miterlimit="10" stroke-linecap="round" stroke-linejoin="round"/>
<path d="M97.11 118.55L118.55 113.07C118.55 113.07 122.98 126.65 109.69 130.08C96.39 133.51 97.11 118.55 97.11 118.55Z" fill="#53476D"/>
<path d="M119.17 116.33C118.98 114.4 118.55 113.07 118.55 113.07L97.11 118.55C97.11 118.55 97.04 120.01 97.35 121.92C102 121.96 112.25 121.41 119.17 116.33Z" fill="white"/>
<path d="M117.6 124.68C110.3 122.86 102.36 126.95 100.12 128.22C101.96 130.18 104.92 131.32 109.69 130.09C113.81 129.02 116.22 126.98 117.6 124.68Z" fill="white"/>
<path d="M97.11 118.55L118.55 113.07C118.55 113.07 122.98 126.65 109.69 130.08C96.39 133.51 97.11 118.55 97.11 118.55Z" stroke="#53476D" stroke-width="3" stroke-miterlimit="10" stroke-linecap="round" stroke-linejoin="round"/>
<path d="M98.83 132.94C98.83 132.94 109.82 139.37 119.26 128.51" stroke="#53476D" stroke-width="3" stroke-miterlimit="10" stroke-linecap="round" stroke-linejoin="round"/>
<path d="M76.37 134.9C68.18 135.92 46.19 119.63 50.26 107.54C54.33 95.45 69.55 103.06 69.55 103.06C69.55 103.06 76.79 90.19 86.62 97.43C96.45 104.67 88.55 133.39 76.37 134.9Z" fill="#E47574"/>
<path d="M73.9834 118.067C75.9797 113.214 73.6647 107.663 68.8125 105.666C63.9604 103.67 58.4085 105.985 56.4122 110.837C54.4158 115.689 56.7309 121.241 61.583 123.237C66.4352 125.234 71.987 122.919 73.9834 118.067Z" fill="white"/>
<path d="M86.02 123.92C86.66 121.6 85.81 119.35 84.13 118.89C82.45 118.43 80.57 119.93 79.93 122.25C79.29 124.57 80.14 126.82 81.82 127.28C83.51 127.74 85.39 126.24 86.02 123.92Z" fill="white"/>
<path d="M76.37 134.9C68.18 135.92 46.19 119.63 50.26 107.54C54.33 95.45 69.55 103.06 69.55 103.06C69.55 103.06 76.79 90.19 86.62 97.43C96.45 104.67 88.55 133.39 76.37 134.9Z" stroke="#53476D" stroke-width="3" stroke-miterlimit="10" stroke-linecap="round" stroke-linejoin="round"/>
<path d="M135.85 115.54C128.01 116 108.16 99.18 112.78 87.96C117.4 76.74 131.36 84.91 131.36 84.91C131.36 84.91 139.03 73.15 147.91 80.63C156.78 88.12 147.5 114.86 135.85 115.54Z" fill="#E47574"/>
<path d="M135.53 96.03C135.86 91.05 132.09 86.75 127.11 86.43C122.13 86.1 117.83 89.87 117.51 94.85C117.18 99.83 120.95 104.13 125.93 104.45C130.91 104.78 135.21 101.01 135.53 96.03Z" fill="white"/>
<path d="M145.69 105.72C146.44 103.56 145.78 101.37 144.21 100.83C142.64 100.29 140.77 101.6 140.02 103.76C139.27 105.92 139.93 108.11 141.5 108.65C143.07 109.19 144.94 107.88 145.69 105.72Z" fill="white"/>
<path d="M135.85 115.54C128.01 116 108.16 99.18 112.78 87.96C117.4 76.74 131.36 84.91 131.36 84.91C131.36 84.91 139.03 73.15 147.91 80.63C156.78 88.12 147.5 114.86 135.85 115.54Z" stroke="#53476D" stroke-width="3" stroke-miterlimit="10" stroke-linecap="round" stroke-linejoin="round"/>
<path d="M61.87 156.31C63.46 171.72 66.8 186.96 71.79 201.62C72.42 203.48 73.56 205.68 75.52 205.65C77.91 205.61 78.71 202.46 78.78 200.07C79.19 185.22 78.85 170.35 77.75 155.54L61.87 156.31Z" fill="#F3AC95"/>
<path d="M61.87 156.31C63.46 171.72 66.8 186.96 71.79 201.62C72.42 203.48 73.56 205.68 75.52 205.65C77.91 205.61 78.71 202.46 78.78 200.07C79.19 185.22 78.85 170.35 77.75 155.54" stroke="#53476D" stroke-width="3" stroke-miterlimit="10" stroke-linecap="round" stroke-linejoin="round"/>
</g>
<defs>
<clipPath id="clip0_5_354">
<rect width="175" height="210" fill="white"/>
</clipPath>
</defs>
</svg>
