<svg width="175" height="210" viewBox="0 0 175 210" fill="none" xmlns="http://www.w3.org/2000/svg">
<path d="M27.85 137.56C27.32 159.05 28.23 180.58 30.58 201.96C30.82 204.12 31.95 206.96 34.07 206.51C35.43 206.22 36.06 204.68 36.45 203.34C39.47 192.97 41.43 182.29 42.29 171.53L27.85 137.56Z" fill="#F3AC95"/>
<path opacity="0.15" d="M27.75 155.65C30.11 163.16 34.42 174.65 40.84 183.65C41.47 179.63 41.96 175.59 42.28 171.53L27.84 137.56C27.7 143.59 27.68 149.62 27.75 155.65Z" fill="#53476D"/>
<path d="M27.85 137.56C27.32 159.05 28.23 180.58 30.58 201.96C30.82 204.12 31.95 206.96 34.07 206.51C35.43 206.22 36.06 204.68 36.45 203.34C39.47 192.97 41.43 182.29 42.29 171.53L27.85 137.56Z" stroke="#53476D" stroke-width="3" stroke-miterlimit="10" stroke-linecap="round" stroke-linejoin="round"/>
<path d="M143.6 166.37C146.06 177.16 148.92 187.87 152.19 198.44C152.8 200.41 154.03 202.8 156.08 202.57C158.11 202.34 158.79 199.76 158.95 197.72C160.87 173.18 159.52 148.38 154.95 124.19L143.6 166.37Z" fill="#F3AC95"/>
<path opacity="0.15" d="M154.95 124.19L143.6 166.37C144.85 171.87 146.21 177.35 147.67 182.79C151.92 175.27 155.67 166.04 158.97 154.72C158.2 144.49 156.86 134.29 154.95 124.19Z" fill="#53476D"/>
<path d="M143.6 166.37C146.06 177.16 148.92 187.87 152.19 198.44C152.8 200.41 154.03 202.8 156.08 202.57C158.11 202.34 158.79 199.76 158.95 197.72C160.87 173.18 159.52 148.38 154.95 124.19L143.6 166.37Z" stroke="#53476D" stroke-width="3" stroke-miterlimit="10" stroke-linecap="round" stroke-linejoin="round"/>
<path d="M106.42 44.73C99.83 31.36 91.37 18.91 81.35 7.88C79.26 5.58 76.74 3.18 73.64 3.2C70.86 3.22 68.42 5.31 67.16 7.79C65.9 10.27 65.58 13.11 65.29 15.88L61.11 55.15C56.53 48.53 51.08 42.52 44.93 37.33C41.39 34.35 36.41 31.53 32.42 33.87C29.44 35.62 28.56 39.46 28 42.87C24.2 66.22 21.54 89.97 23.08 113.58C24.47 134.89 28.65 152.66 36.58 168.65C44.51 184.64 57.76 198.77 74.82 204C98.91 211.37 126.16 198.87 140.72 178.32C155.28 157.76 158.67 130.93 155.28 105.97C151.9 81.01 142.35 57.36 132.89 34.01L128.04 22.04C126.05 17.14 122.21 11.24 117.11 12.64C113.24 13.7 111.82 18.33 111.02 22.26C109.48 29.75 107.95 37.24 106.42 44.73Z" fill="#F3AC95"/>
<mask id="mask0_5_1042" style="mask-type:luminance" maskUnits="userSpaceOnUse" x="22" y="3" width="135" height="204">
<path d="M106.42 44.73C99.83 31.36 91.37 18.91 81.35 7.88C79.26 5.58 76.74 3.18 73.64 3.2C70.86 3.22 68.42 5.31 67.16 7.79C65.9 10.27 65.58 13.11 65.29 15.88L61.11 55.15C56.53 48.53 51.08 42.52 44.93 37.33C41.39 34.35 36.41 31.53 32.42 33.87C29.44 35.62 28.56 39.46 28 42.87C24.2 66.22 21.54 89.97 23.08 113.58C24.47 134.89 28.65 152.66 36.58 168.65C44.51 184.64 57.76 198.77 74.82 204C98.91 211.37 126.16 198.87 140.72 178.32C155.28 157.76 158.67 130.93 155.28 105.97C151.9 81.01 142.35 57.36 132.89 34.01L128.04 22.04C126.05 17.14 122.21 11.24 117.11 12.64C113.24 13.7 111.82 18.33 111.02 22.26C109.48 29.75 107.95 37.24 106.42 44.73Z" fill="white"/>
</mask>
<g mask="url(#mask0_5_1042)">
<path d="M31.55 127.41C38.8788 127.41 44.82 123.51 44.82 118.7C44.82 113.89 38.8788 109.99 31.55 109.99C24.2212 109.99 18.28 113.89 18.28 118.7C18.28 123.51 24.2212 127.41 31.55 127.41Z" fill="#FFE4B8"/>
</g>
<mask id="mask1_5_1042" style="mask-type:luminance" maskUnits="userSpaceOnUse" x="22" y="3" width="135" height="204">
<path d="M106.42 44.73C99.83 31.36 91.37 18.91 81.35 7.88C79.26 5.58 76.74 3.18 73.64 3.2C70.86 3.22 68.42 5.31 67.16 7.79C65.9 10.27 65.58 13.11 65.29 15.88L61.11 55.15C56.53 48.53 51.08 42.52 44.93 37.33C41.39 34.35 36.41 31.53 32.42 33.87C29.44 35.62 28.56 39.46 28 42.87C24.2 66.22 21.54 89.97 23.08 113.58C24.47 134.89 28.65 152.66 36.58 168.65C44.51 184.64 57.76 198.77 74.82 204C98.91 211.37 126.16 198.87 140.72 178.32C155.28 157.76 158.67 130.93 155.28 105.97C151.9 81.01 142.35 57.36 132.89 34.01L128.04 22.04C126.05 17.14 122.21 11.24 117.11 12.64C113.24 13.7 111.82 18.33 111.02 22.26C109.48 29.75 107.95 37.24 106.42 44.73Z" fill="white"/>
</mask>
<g mask="url(#mask1_5_1042)">
<path d="M160.79 113.87C160.16 109.1 153.76 106.02 146.49 106.98C139.22 107.94 133.85 112.59 134.48 117.36C135.11 122.13 141.51 125.21 148.78 124.25C156.05 123.28 161.43 118.64 160.79 113.87Z" fill="#FFE4B8"/>
</g>
<path d="M61.1 55.15C62.18 56.71 63.2 58.3 64.18 59.92" stroke="#53476D" stroke-width="3" stroke-miterlimit="10" stroke-linecap="round" stroke-linejoin="round"/>
<path d="M104.68 53.27C105.26 50.42 105.84 47.57 106.42 44.72" stroke="#53476D" stroke-width="3" stroke-miterlimit="10" stroke-linecap="round" stroke-linejoin="round"/>
<path d="M91.63 29.29C93.23 29.14 94.44 27.63 94.79 26.06C94.86 25.73 94.9 25.4 94.92 25.06C90.79 19.03 86.26 13.28 81.35 7.87C79.26 5.57 76.74 3.17 73.64 3.19C70.86 3.21 68.42 5.3 67.16 7.78C65.9 10.26 65.58 13.1 65.29 15.87C65.29 15.87 64.68 21.57 63.93 28.63C64.41 29.9 64.94 31.06 65.51 32.2C65.96 33.08 66.53 34.04 67.49 34.3C68.31 34.53 69.21 34.15 69.81 33.55C70.41 32.95 70.78 32.15 71.1 31.36C72.43 28.15 73.33 24.75 74.04 20.66C75.78 24.36 77.66 27.99 79.65 31.56C80.16 32.48 81.02 33.54 82.02 33.24C82.9 32.98 83.16 31.87 83.25 30.96C83.49 28.38 83.57 25.79 83.48 23.2C84.8 24.92 86.34 26.48 88.05 27.82C89.09 28.65 90.31 29.42 91.63 29.29Z" fill="#ADA4C0"/>
<path d="M137.78 169.33C135.44 171.26 135.05 175.14 136.96 177.5C137.72 178.44 138.8 179.06 139.96 179.36C140.21 179.02 140.47 178.68 140.72 178.33C142.62 175.65 144.32 172.86 145.85 169.99C143.87 167.75 140.08 167.43 137.78 169.33Z" fill="#D9876B"/>
<path d="M108.57 34.2C108.67 35.05 108.79 35.89 108.94 36.72C109.1 37.63 109.33 38.63 110.09 39.17C110.87 39.72 111.98 39.58 112.79 39.06C113.59 38.54 114.15 37.73 114.66 36.92C116.46 34.1 117.98 31.11 119.97 27.71C120.88 30.21 121.86 32.69 122.92 35.14C123.35 36.12 124.13 37.28 125.17 37.02C125.79 36.87 126.17 36.24 126.46 35.67C127.91 32.85 129.08 29.88 129.98 26.84L128.03 22.03C126.04 17.13 122.2 11.23 117.1 12.63C113.23 13.69 111.81 18.32 111.01 22.25C110.19 26.24 109.38 30.22 108.57 34.2Z" fill="#ADA4C0"/>
<path d="M139.77 152.09C137.74 153.92 137.49 157.39 139.24 159.49C140.99 161.59 144.47 161.95 146.61 160.25C148.75 158.55 149.63 154.68 147.2 152.27C145.27 150.35 141.8 150.26 139.77 152.09Z" fill="#D9876B"/>
<path d="M36.74 147.84C35.18 144 30.4 145.59 28.8 147.71C28.74 147.79 28.7 147.87 28.65 147.95C29.61 151.33 30.69 154.63 31.89 157.84C32.04 157.87 32.19 157.89 32.34 157.89C34.03 157.93 35.49 156.63 36.31 155.15C37.54 152.95 37.7 150.18 36.74 147.84Z" fill="#D9876B"/>
<path d="M39.68 163.23C38.95 165.78 40.48 168.77 42.98 169.65C45.48 170.54 48.55 169.19 49.59 166.75C50.63 164.31 49.72 160.4 45.89 159.54C43.3 158.97 40.41 160.69 39.68 163.23Z" fill="#D9876B"/>
<path d="M25.66 58.55C25.89 58.5 26.11 58.42 26.29 58.29C26.77 57.95 27.09 57.43 27.38 56.92C28.61 54.76 29.57 52.45 30.22 50.05C30.38 52.44 30.86 54.8 31.67 57.06C31.99 57.96 32.59 59 33.55 58.97C34.67 58.93 35.11 57.52 35.25 56.41C35.58 53.72 35.91 51.03 36.86 48.08C39.26 49.97 41.84 51.62 44.57 52.99C45.54 53.48 46.76 53.91 47.64 53.28C48.57 52.62 48.49 51.23 48.3 50.1C47.56 45.87 46.52 41.69 45.22 37.6C45.12 37.51 45.02 37.42 44.91 37.33C41.37 34.35 36.39 31.53 32.4 33.87C29.42 35.62 28.54 39.46 27.98 42.87C27.15 48.08 26.36 53.31 25.66 58.55Z" fill="#ADA4C0"/>
<path d="M100.7 154.57C89.85 154.2 78.79 155.63 69.2 160.74C65.66 162.62 62.27 164.95 59.85 168.14C57.43 171.33 56.08 175.5 56.93 179.41C58.14 184.97 63.31 188.73 68.46 191.16C81.88 197.49 97.83 198.25 111.78 193.21C115.89 191.72 119.89 189.72 123.08 186.74C126.27 183.75 128.61 179.69 128.9 175.33C129.27 169.79 126.25 164.37 121.91 160.92C117.57 157.46 111.01 154.92 100.7 154.57Z" fill="#FBC8B9"/>
<path opacity="0.3" d="M37.05 39.52C40.86 38.81 44.03 38.68 46.49 38.69C45.97 38.23 45.46 37.77 44.93 37.33C41.39 34.35 36.41 31.53 32.42 33.87C29.44 35.62 28.56 39.46 28 42.87C27.11 48.33 26.29 53.81 25.57 59.3C27.94 50.49 31.76 40.51 37.05 39.52Z" fill="#FFE4BA"/>
<path opacity="0.15" d="M140.72 178.32C155.28 157.76 158.67 130.93 155.28 105.97C154.7 101.7 153.93 97.48 153.02 93.28C152.6 127.52 127.73 185.34 91.65 188.91C63.19 191.73 44.71 177.12 36.65 168.82C44.59 184.74 57.8 198.8 74.81 204C98.91 211.38 126.16 198.88 140.72 178.32Z" fill="#53476D"/>
<path opacity="0.3" d="M127.7 21.26C125.63 16.54 121.93 11.32 117.1 12.64C113.23 13.7 111.81 18.33 111.01 22.26C110.15 26.47 109.29 30.69 108.43 34.9C111.63 28.94 118.49 18.99 127.7 21.26Z" fill="#FFE4BA"/>
<path opacity="0.3" d="M83.89 10.78C83.05 9.81 82.21 8.83 81.35 7.88C79.26 5.58 76.74 3.18 73.64 3.2C70.86 3.22 68.42 5.31 67.16 7.79C65.9 10.27 65.58 13.11 65.29 15.88C65.29 15.88 63.88 29.12 62.7 40.23C65.43 30.38 71.92 12.85 83.89 10.78Z" fill="#FFE4BA"/>
<path d="M106.42 44.73C99.83 31.36 91.37 18.91 81.35 7.88C79.26 5.58 76.74 3.18 73.64 3.2C70.86 3.22 68.42 5.31 67.16 7.79C65.9 10.27 65.58 13.11 65.29 15.88L61.11 55.15C56.53 48.53 51.08 42.52 44.93 37.33C41.39 34.35 36.41 31.53 32.42 33.87C29.44 35.62 28.56 39.46 28 42.87C24.2 66.22 21.54 89.97 23.08 113.58C24.47 134.89 28.65 152.66 36.58 168.65C44.51 184.64 57.76 198.77 74.82 204C98.91 211.37 126.16 198.87 140.72 178.32C155.28 157.76 158.67 130.93 155.28 105.97C151.9 81.01 142.35 57.36 132.89 34.01L128.04 22.04C126.05 17.14 122.21 11.24 117.11 12.64C113.24 13.7 111.82 18.33 111.02 22.26C109.48 29.75 107.95 37.24 106.42 44.73Z" stroke="#53476D" stroke-width="3" stroke-miterlimit="10" stroke-linecap="round" stroke-linejoin="round"/>
<path d="M41.7 104.58C47.45 103.7 55.28 102.57 62.88 101.68C67.32 101.16 71.41 104.18 72.18 108.58C72.19 108.65 72.2 108.72 72.22 108.79C73.03 113.45 69.86 117.87 65.18 118.57C59.18 119.47 50.98 120.68 44.18 121.6C39.89 122.18 35.88 119.41 34.87 115.21C34.84 115.09 34.81 114.97 34.79 114.86C33.65 110.08 36.84 105.33 41.7 104.58Z" fill="#53476D"/>
<mask id="mask2_5_1042" style="mask-type:luminance" maskUnits="userSpaceOnUse" x="34" y="101" width="39" height="21">
<path d="M41.7 104.58C47.45 103.7 55.28 102.57 62.88 101.68C67.32 101.16 71.41 104.18 72.18 108.58C72.19 108.65 72.2 108.72 72.22 108.79C73.03 113.45 69.86 117.87 65.18 118.57C59.18 119.47 50.98 120.68 44.18 121.6C39.89 122.18 35.88 119.41 34.87 115.21C34.84 115.09 34.81 114.97 34.79 114.86C33.65 110.08 36.84 105.33 41.7 104.58Z" fill="white"/>
</mask>
<g mask="url(#mask2_5_1042)">
<path d="M54.99 106.69C54.63 102.3 50.79 99.03 46.39 99.38C42 99.74 38.73 103.58 39.08 107.98C39.44 112.37 43.28 115.64 47.68 115.29C52.08 114.93 55.35 111.08 54.99 106.69Z" fill="white"/>
</g>
<mask id="mask3_5_1042" style="mask-type:luminance" maskUnits="userSpaceOnUse" x="34" y="101" width="39" height="21">
<path d="M41.7 104.58C47.45 103.7 55.28 102.57 62.88 101.68C67.32 101.16 71.41 104.18 72.18 108.58C72.19 108.65 72.2 108.72 72.22 108.79C73.03 113.45 69.86 117.87 65.18 118.57C59.18 119.47 50.98 120.68 44.18 121.6C39.89 122.18 35.88 119.41 34.87 115.21C34.84 115.09 34.81 114.97 34.79 114.86C33.65 110.08 36.84 105.33 41.7 104.58Z" fill="white"/>
</mask>
<g mask="url(#mask3_5_1042)">
<path d="M66.13 113.25C65.96 111.12 64.09 109.53 61.96 109.7C59.83 109.87 58.24 111.74 58.41 113.87C58.58 116 60.45 117.59 62.58 117.42C64.71 117.25 66.3 115.38 66.13 113.25Z" fill="white"/>
</g>
<path d="M41.7 104.58C47.45 103.7 55.28 102.57 62.88 101.68C67.32 101.16 71.41 104.18 72.18 108.58C72.19 108.65 72.2 108.72 72.22 108.79C73.03 113.45 69.86 117.87 65.18 118.57C59.18 119.47 50.98 120.68 44.18 121.6C39.89 122.18 35.88 119.41 34.87 115.21C34.84 115.09 34.81 114.97 34.79 114.86C33.65 110.08 36.84 105.33 41.7 104.58Z" stroke="#53476D" stroke-width="3" stroke-miterlimit="10" stroke-linecap="round" stroke-linejoin="round"/>
<path d="M138.84 99.38C133.04 98.97 125.14 98.47 117.49 98.2C113.02 98.04 109.19 101.38 108.78 105.83C108.77 105.9 108.77 105.97 108.76 106.05C108.33 110.76 111.84 114.91 116.56 115.23C122.61 115.64 130.88 116.19 137.74 116.55C142.06 116.78 145.84 113.7 146.5 109.42C146.52 109.3 146.54 109.18 146.56 109.06C147.31 104.2 143.75 99.73 138.84 99.38Z" fill="#53476D"/>
<mask id="mask4_5_1042" style="mask-type:luminance" maskUnits="userSpaceOnUse" x="108" y="98" width="39" height="19">
<path d="M138.84 99.38C133.04 98.97 125.14 98.47 117.49 98.2C113.02 98.04 109.19 101.38 108.78 105.83C108.77 105.9 108.77 105.97 108.76 106.05C108.33 110.76 111.84 114.91 116.56 115.23C122.61 115.64 130.88 116.19 137.74 116.55C142.06 116.78 145.84 113.7 146.5 109.42C146.52 109.3 146.54 109.18 146.56 109.06C147.31 104.2 143.75 99.73 138.84 99.38Z" fill="white"/>
</mask>
<g mask="url(#mask4_5_1042)">
<path d="M122.61 110.24C127.017 110.24 130.59 106.667 130.59 102.26C130.59 97.8528 127.017 94.28 122.61 94.28C118.203 94.28 114.63 97.8528 114.63 102.26C114.63 106.667 118.203 110.24 122.61 110.24Z" fill="white"/>
</g>
<mask id="mask5_5_1042" style="mask-type:luminance" maskUnits="userSpaceOnUse" x="108" y="98" width="39" height="19">
<path d="M138.84 99.38C133.04 98.97 125.14 98.47 117.49 98.2C113.02 98.04 109.19 101.38 108.78 105.83C108.77 105.9 108.77 105.97 108.76 106.05C108.33 110.76 111.84 114.91 116.56 115.23C122.61 115.64 130.88 116.19 137.74 116.55C142.06 116.78 145.84 113.7 146.5 109.42C146.52 109.3 146.54 109.18 146.56 109.06C147.31 104.2 143.75 99.73 138.84 99.38Z" fill="white"/>
</mask>
<g mask="url(#mask5_5_1042)">
<path d="M132 110.58C132 108.44 133.73 106.71 135.87 106.71C138.01 106.71 139.74 108.44 139.74 110.58C139.74 112.72 138.01 114.45 135.87 114.45C133.73 114.45 132 112.72 132 110.58Z" fill="white"/>
</g>
<path d="M138.84 99.38C133.04 98.97 125.14 98.47 117.49 98.2C113.02 98.04 109.19 101.38 108.78 105.83C108.77 105.9 108.77 105.97 108.76 106.05C108.33 110.76 111.84 114.91 116.56 115.23C122.61 115.64 130.88 116.19 137.74 116.55C142.06 116.78 145.84 113.7 146.5 109.42C146.52 109.3 146.54 109.18 146.56 109.06C147.31 104.2 143.75 99.73 138.84 99.38Z" stroke="#53476D" stroke-width="3" stroke-miterlimit="10" stroke-linecap="round" stroke-linejoin="round"/>
<path d="M76.5 127.2C76.5 127.2 80.98 113.71 92.82 112.6C104.67 111.5 109.11 124.94 109.11 124.94L76.5 127.2Z" fill="#53476D"/>
<path d="M106.82 120.33C95.23 119.54 83.69 121.75 78.5 122.95C77.12 125.34 76.5 127.2 76.5 127.2L109.12 124.95C109.12 124.95 108.41 122.82 106.82 120.33Z" fill="white"/>
<path d="M102.53 115.48C100.09 113.56 96.89 112.23 92.83 112.61C88.91 112.98 85.8 114.7 83.39 116.84C87.79 117.15 96.15 117.38 102.53 115.48Z" fill="white"/>
<path d="M76.5 127.2C76.5 127.2 80.98 113.71 92.82 112.6C104.67 111.5 109.11 124.94 109.11 124.94L76.5 127.2Z" stroke="#53476D" stroke-width="3" stroke-miterlimit="10" stroke-linecap="round" stroke-linejoin="round"/>
<path d="M76.5 132.33C76.5 132.33 93.82 133.42 110.36 130.55" stroke="#53476D" stroke-width="3" stroke-miterlimit="10" stroke-linecap="round" stroke-linejoin="round"/>
</svg>
