<svg width="175" height="210" viewBox="0 0 175 210" fill="none" xmlns="http://www.w3.org/2000/svg">
<g clip-path="url(#clip0_5_698)">
<path d="M148.08 146.81C148.49 159.36 149.26 171.89 150.39 184.4C150.58 186.54 151.2 189.17 153.29 189.65C154.6 189.95 155.96 189.17 156.74 188.08C157.52 186.99 157.84 185.65 158.14 184.34C161.67 168.88 164.26 153.21 165.91 137.43L148.08 146.81Z" fill="#F3AC95"/>
<path opacity="0.15" d="M160.27 174.38C162.73 162.16 164.62 149.83 165.91 137.44L148.08 146.82C148.49 159.37 149.26 171.9 150.39 184.41C150.41 184.67 150.44 184.94 150.48 185.21C152.81 183.29 156.53 179.78 160.27 174.38Z" fill="#53476D"/>
<path d="M148.08 146.81C148.49 159.36 149.26 171.89 150.39 184.4C150.58 186.54 151.2 189.17 153.29 189.65C154.6 189.95 155.96 189.17 156.74 188.08C157.52 186.99 157.84 185.65 158.14 184.34C161.67 168.88 164.26 153.21 165.91 137.43L148.08 146.81Z" stroke="#53476D" stroke-width="3" stroke-miterlimit="10" stroke-linecap="round" stroke-linejoin="round"/>
<path d="M39.5 73.8C34.71 61.99 30.49 49.94 26.86 37.72C25.18 32.07 23.98 25.05 28.33 21.08C30.84 18.78 34.61 18.31 37.94 19.04C41.26 19.77 44.25 21.56 47.13 23.36C58.72 30.58 69.88 38.52 80.51 47.1C76.96 38.91 74.26 30.34 72.47 21.6C71.8 18.35 71.45 14.47 73.88 12.21C76.58 9.69 80.92 10.8 84.34 12.19C115.64 24.92 142.39 49.45 156.33 80.23C164.29 97.81 168.87 117.14 167.71 136.41C166.55 155.68 158.78 175.1 143.97 187.49C130.8 198.51 113.18 203.15 96.01 203.4C83.2 203.59 69.94 201.35 59.28 194.22C42.19 182.79 35.13 161.54 29.19 141.85C22.08 118.29 14.97 94.73 7.85999 71.17C6.39999 66.29 5.62999 59.64 10.21 57.4C13.26 55.91 16.85 57.52 19.78 59.22C26.85 63.36 33.47 68.25 39.5 73.8Z" fill="#F3AC95"/>
<path d="M144.72 59.97C129.79 38.74 108.41 21.96 84.34 12.17C80.92 10.78 76.58 9.67 73.88 12.19C71.45 14.45 71.81 18.33 72.47 21.58C74.26 30.33 76.96 38.89 80.51 47.08C69.88 38.5 58.73 30.57 47.14 23.34C44.25 21.54 41.27 19.76 37.95 19.02C34.63 18.29 30.86 18.76 28.34 21.06C23.99 25.03 25.2 32.06 26.87 37.7C30.5 49.92 34.72 61.97 39.51 73.78C33.48 68.23 26.86 63.34 19.79 59.21C16.86 57.5 13.27 55.9 10.22 57.39C5.64999 59.62 6.40999 66.28 7.87999 71.16C12.75 87.31 17.63 103.45 22.5 119.6C30.96 99.74 72.66 49.43 144.72 59.97Z" fill="#89B0D5"/>
<mask id="mask0_5_698" style="mask-type:luminance" maskUnits="userSpaceOnUse" x="6" y="10" width="162" height="194">
<path d="M39.5 73.8C34.71 61.99 30.49 49.94 26.86 37.72C25.18 32.07 23.98 25.05 28.33 21.08C30.84 18.78 34.61 18.31 37.94 19.04C41.26 19.77 44.25 21.56 47.13 23.36C58.72 30.58 69.88 38.52 80.51 47.1C76.96 38.91 74.26 30.34 72.47 21.6C71.8 18.35 71.45 14.47 73.88 12.21C76.58 9.69 80.92 10.8 84.34 12.19C115.64 24.92 142.39 49.45 156.33 80.23C164.29 97.81 168.87 117.14 167.71 136.41C166.55 155.68 158.78 175.1 143.97 187.49C130.8 198.51 113.18 203.15 96.01 203.4C83.2 203.59 69.94 201.35 59.28 194.22C42.19 182.79 35.13 161.54 29.19 141.85C22.08 118.29 14.97 94.73 7.85999 71.17C6.39999 66.29 5.62999 59.64 10.21 57.4C13.26 55.91 16.85 57.52 19.78 59.22C26.85 63.36 33.47 68.25 39.5 73.8Z" fill="white"/>
</mask>
<g mask="url(#mask0_5_698)">
<path d="M66.09 141.28C58.54 139.92 53.15 134.8 54.05 129.84C54.95 124.89 61.79 121.98 69.33 123.35C76.88 124.71 82.27 129.83 81.37 134.79C80.47 139.74 73.63 142.65 66.09 141.28Z" fill="#FFE4B8"/>
</g>
<mask id="mask1_5_698" style="mask-type:luminance" maskUnits="userSpaceOnUse" x="0" y="64" width="191" height="170">
<path d="M38.9269 142.904C28.5382 135.523 18.501 127.633 8.8699 119.282C4.41548 115.422 -0.370891 110.148 1.16193 104.462C2.0414 101.173 4.96716 98.7501 8.16721 97.575C11.3588 96.4053 14.8422 96.3067 18.2382 96.2757C31.8919 96.131 45.5702 96.8244 59.1458 98.3425C51.7491 93.3463 44.8646 87.5727 38.656 81.1665C36.3436 78.7867 33.9622 75.7037 34.7957 72.4917C35.7171 68.9153 39.973 67.5175 43.6038 66.8505C76.8378 60.7531 112.58 67.0509 140.884 85.506C157.048 96.0476 171.303 109.882 180.686 126.752C190.07 143.623 193.961 164.174 188.137 182.583C182.958 198.955 170.598 212.342 156.256 221.785C145.558 228.833 133.174 234.074 120.353 233.795C99.7988 233.347 82.4204 219.228 66.825 205.821C48.1624 189.781 29.4997 173.74 10.8371 157.7C6.98216 154.371 2.75727 149.178 5.41422 144.827C7.1845 141.931 11.0769 141.358 14.4613 141.215C22.6481 140.904 30.8588 141.467 38.9269 142.904Z" fill="white"/>
</mask>
<g mask="url(#mask1_5_698)">
<path d="M162.551 117.006C169.013 112.884 172.06 106.104 169.354 101.862C166.649 97.6199 159.217 97.5225 152.754 101.644C146.291 105.766 143.245 112.546 145.95 116.788C148.655 121.03 156.088 121.128 162.551 117.006Z" fill="#FFE4B8"/>
</g>
<path d="M44.96 79.18C43.2 77.33 41.38 75.53 39.5 73.8" stroke="#53476D" stroke-width="3" stroke-miterlimit="10" stroke-linecap="round" stroke-linejoin="round"/>
<path d="M55.41 176.86C57.38 173.75 57.74 168.61 53.75 165.35C51.17 163.24 47.34 162.8 44.35 164.27C41.98 165.43 40.25 167.75 39.67 170.33C41.42 173.88 43.37 177.28 45.59 180.46C45.65 180.48 45.71 180.51 45.77 180.53C49.32 181.53 53.44 179.97 55.41 176.86Z" fill="#D9876B"/>
<path d="M96.46 24.89C95.64 21.83 94.47 18.86 92.99 16.05C90.15 14.66 87.26 13.36 84.33 12.17C80.91 10.78 76.57 9.67 73.87 12.19C71.44 14.45 71.8 18.33 72.46 21.58C73.63 27.3 75.2 32.93 77.13 38.44C77.57 38.96 77.88 39.51 78.24 40.01C79.08 41.17 80.61 42.12 81.9 41.5C83.12 40.91 83.38 39.3 83.4 37.94C83.43 34.43 82.83 30.94 82.1 27.23C85.69 28.16 89.34 28.82 93.02 29.22C94.05 29.33 95.22 29.38 96 28.69C97.01 27.8 96.81 26.19 96.46 24.89Z" fill="#B0C8D5"/>
<path d="M30.11 79.32C30.89 78.75 30.58 77.54 30.18 76.66C29.03 74.15 27.74 71.7 26.21 68.58C27.16 69.33 28.16 70.11 29.35 70.3C30.54 70.5 31.96 69.88 32.22 68.7C32.3 68.32 32.25 67.94 32.13 67.58C28.2 64.53 24.07 61.74 19.78 59.23C16.85 57.52 13.26 55.92 10.21 57.41C5.63998 59.64 6.39998 66.3 7.86998 71.18C9.37998 76.18 10.89 81.17 12.39 86.17C13.84 87.39 15.34 88.54 16.91 89.59C17.54 90.01 18.31 90.42 19 90.12C19.86 89.75 19.95 88.59 19.89 87.66C19.66 83.88 19.18 80.12 18.71 75.15C21.78 76.59 24.89 77.95 28.03 79.23C28.71 79.49 29.52 79.74 30.11 79.32Z" fill="#B0C8D5"/>
<path d="M64.3 184.6C62.4 186.35 62.22 189.64 63.92 191.59C65.62 193.54 68.91 193.8 70.9 192.15C72.89 190.5 73.44 187.03 71.3 184.82C69.5 182.96 66.2 182.86 64.3 184.6Z" fill="#D9876B"/>
<path d="M151.04 140.98C149.14 142.73 148.96 146.02 150.66 147.97C152.36 149.92 155.65 150.18 157.64 148.53C159.63 146.88 160.18 143.41 158.04 141.2C156.24 139.33 152.94 139.23 151.04 140.98Z" fill="#D9876B"/>
<path d="M82.13 173.03C82.99 170.89 82.9 167.71 79.85 165.75C77.68 164.36 74.61 164.58 72.67 166.28C70.73 167.98 70.1 171 71.2 173.33C72.18 175.42 74.46 176.82 76.77 176.76C79.06 176.7 81.26 175.17 82.13 173.03Z" fill="#D9876B"/>
<path d="M59.29 34.86C58.39 33.07 57.49 31.28 56.6 29.49C53.48 27.4 50.32 25.35 47.13 23.36C44.24 21.56 41.26 19.78 37.94 19.04C34.62 18.31 30.85 18.78 28.33 21.08C23.98 25.05 25.19 32.08 26.86 37.72C28.55 43.41 30.38 49.06 32.32 54.66C32.46 54.78 32.6 54.92 32.76 55.02C33.86 55.73 35.52 55.74 36.29 54.68C36.76 54.04 36.79 53.2 36.8 52.41C36.86 47.28 36.52 42.14 36.49 36.45L47.4 44.63C48.11 45.16 49.05 45.72 49.82 45.27C50.6 44.82 50.58 43.69 50.4 42.8C49.8 39.84 48.65 37 47.43 34.21L56.76 37.77C57.64 38.11 58.76 38.4 59.43 37.74C60.18 37.03 59.75 35.79 59.29 34.86Z" fill="#B0C8D5"/>
<path d="M88.17 53.47C85.65 51.31 83.09 49.18 80.51 47.09" stroke="#53476D" stroke-width="3" stroke-miterlimit="10" stroke-linecap="round" stroke-linejoin="round"/>
<path d="M132.93 189.53C123.6 196.57 111.55 199.91 99.92 198.68C95.94 198.26 91.73 197.15 89.16 194.08C86.93 191.41 86.36 187.62 87.01 184.2C87.66 180.78 89.4 177.66 91.37 174.79C100.24 161.91 114.59 152.95 130.06 150.64C136.09 149.74 143.16 150.21 146.95 154.99C150.52 159.5 149.71 166.1 147.5 171.4C145.03 177.31 141.46 183.09 132.93 189.53Z" fill="#FBC8B9"/>
<path opacity="0.3" d="M28.33 21.08C23.98 25.05 25.19 32.08 26.86 37.72C28.01 41.59 29.24 45.44 30.51 49.28C29.86 39.66 30.22 26.04 37.4 25.39C41.9 24.99 44.87 24.09 46.84 23.17C44.04 21.43 41.15 19.74 37.94 19.03C34.61 18.31 30.84 18.78 28.33 21.08Z" fill="#FFE4BA"/>
<path opacity="0.3" d="M73.87 12.2C71.44 14.46 71.8 18.34 72.46 21.59C73.1 24.72 73.86 27.83 74.74 30.91C74.4 24.12 75.83 14.11 86.88 13.24C86.03 12.88 85.19 12.52 84.34 12.17C80.92 10.78 76.58 9.68 73.87 12.2Z" fill="#FFE4BA"/>
<path opacity="0.15" d="M117.45 188.29C74.25 196.22 48.93 177.98 38.26 167.33C43.13 178.06 49.59 187.72 59.29 194.2C69.94 201.33 83.2 203.57 96.02 203.38C113.2 203.13 130.81 198.49 143.98 187.47C158.79 175.08 166.56 155.66 167.72 136.39C168.85 117.57 164.5 98.7 156.88 81.46C160.2 117.34 159.83 180.52 117.45 188.29Z" fill="#53476D"/>
<path opacity="0.3" d="M11.23 82.32C10.82 73.2 12.3 61.77 21.94 60.53C21.22 60.09 20.5 59.65 19.77 59.22C16.84 57.51 13.25 55.91 10.2 57.4C5.63 59.63 6.39 66.29 7.86 71.17C8.99 74.88 10.11 78.6 11.23 82.32Z" fill="#FFE4BA"/>
<path d="M39.5 73.8C34.71 61.99 30.49 49.94 26.86 37.72C25.18 32.07 23.98 25.05 28.33 21.08C30.84 18.78 34.61 18.31 37.94 19.04C41.26 19.77 44.25 21.56 47.13 23.36C58.72 30.58 69.88 38.52 80.51 47.1C76.96 38.91 74.26 30.34 72.47 21.6C71.8 18.35 71.45 14.47 73.88 12.21C76.58 9.69 80.92 10.8 84.34 12.19C115.64 24.92 142.39 49.45 156.33 80.23C164.29 97.81 168.87 117.14 167.71 136.41C166.55 155.68 158.78 175.1 143.97 187.49C130.8 198.51 113.18 203.15 96.01 203.4C83.2 203.59 69.94 201.35 59.28 194.22C42.19 182.79 35.13 161.54 29.19 141.85C22.08 118.29 14.97 94.73 7.85999 71.17C6.39999 66.29 5.62999 59.64 10.21 57.4C13.26 55.91 16.85 57.52 19.78 59.22C26.85 63.36 33.47 68.25 39.5 73.8Z" stroke="#53476D" stroke-width="3" stroke-miterlimit="10" stroke-linecap="round" stroke-linejoin="round"/>
<path d="M79.9531 130.418C89.693 127.461 95.1046 116.881 92.0402 106.787C88.9758 96.693 78.5959 90.9072 68.856 93.8641C59.1161 96.821 53.7045 107.401 56.7689 117.495C59.8332 127.589 70.2132 133.375 79.9531 130.418Z" fill="#53476D"/>
<path d="M74.23 125.57C82.2547 125.57 88.76 119.289 88.76 111.54C88.76 103.791 82.2547 97.51 74.23 97.51C66.2053 97.51 59.7 103.791 59.7 111.54C59.7 119.289 66.2053 125.57 74.23 125.57Z" fill="white"/>
<path d="M141.695 115.87C151.198 114.876 158.014 105.583 156.919 95.1134C155.825 84.6437 147.234 76.9618 137.731 77.9555C128.228 78.9492 121.411 88.2421 122.506 98.7118C123.601 109.181 132.192 116.863 141.695 115.87Z" fill="#53476D"/>
<path d="M139.55 110.34C147.072 110.34 153.17 104.059 153.17 96.31C153.17 88.5615 147.072 82.28 139.55 82.28C132.028 82.28 125.93 88.5615 125.93 96.31C125.93 104.059 132.028 110.34 139.55 110.34Z" fill="white"/>
<path d="M99.29 124.53L128.73 117.73" stroke="#53476D" stroke-width="3" stroke-miterlimit="10" stroke-linecap="round" stroke-linejoin="round"/>
<path d="M107.15 127.89C107.15 127.89 116.05 129.53 123.66 124.53" stroke="#53476D" stroke-width="3" stroke-miterlimit="10" stroke-linecap="round" stroke-linejoin="round"/>
<path d="M60.3 163.49C69.59 175.9 80.27 187.25 92.09 197.27C93.59 198.54 95.69 199.85 97.36 198.81C99.39 197.54 98.46 194.43 97.29 192.35C90.01 179.4 82.08 166.82 73.53 154.67L60.3 163.49Z" fill="#F3AC95"/>
<path d="M60.3 163.49C69.59 175.9 80.27 187.25 92.09 197.27C93.59 198.54 95.69 199.85 97.36 198.81C99.39 197.54 98.46 194.43 97.29 192.35C90.01 179.4 82.08 166.82 73.53 154.67" stroke="#53476D" stroke-width="3" stroke-miterlimit="10" stroke-linecap="round" stroke-linejoin="round"/>
</g>
<defs>
<clipPath id="clip0_5_698">
<rect width="175" height="210" fill="white"/>
</clipPath>
</defs>
</svg>
