<svg width="175" height="210" viewBox="0 0 175 210" fill="none" xmlns="http://www.w3.org/2000/svg">
<path d="M147.71 159.24C152.75 170.74 158.13 182.09 163.83 193.27C164.8 195.18 166.35 197.4 168.47 197.07C169.79 196.86 170.77 195.63 171.09 194.33C171.41 193.03 171.21 191.66 171 190.34C168.52 174.68 165.1 159.16 160.77 143.91L147.71 159.24Z" fill="#F3AC95"/>
<path opacity="0.15" d="M160.78 143.9L147.72 159.24C150.82 166.32 154.07 173.33 157.43 180.3C162.21 176.6 165.06 172.02 166.76 167.72C165 159.72 163.02 151.77 160.78 143.9Z" fill="#53476D"/>
<path d="M147.71 159.24C152.75 170.74 158.13 182.09 163.83 193.27C164.8 195.18 166.35 197.4 168.47 197.07C169.79 196.86 170.77 195.63 171.09 194.33C171.41 193.03 171.21 191.66 171 190.34C168.52 174.68 165.1 159.16 160.77 143.91L147.71 159.24Z" stroke="#53476D" stroke-width="3" stroke-miterlimit="10" stroke-linecap="round" stroke-linejoin="round"/>
<path d="M36.42 73.02C31.63 61.21 27.41 49.16 23.78 36.94C22.1 31.29 20.9 24.27 25.25 20.3C27.76 18 31.53 17.53 34.86 18.26C38.18 18.99 41.17 20.78 44.05 22.58C55.64 29.8 66.8 37.74 77.42 46.32C73.87 38.13 71.17 29.56 69.38 20.82C68.71 17.57 68.36 13.69 70.79 11.43C73.49 8.91002 77.83 10.02 81.25 11.41C112.55 24.14 139.3 48.67 153.24 79.45C161.2 97.03 165.78 116.36 164.62 135.63C163.46 154.9 155.69 174.32 140.88 186.71C127.71 197.73 110.09 202.37 92.92 202.62C80.11 202.81 66.85 200.57 56.19 193.44C39.1 182.01 32.04 160.76 26.1 141.07C19.01 117.51 11.9 93.95 4.78999 70.39C3.31999 65.52 2.55999 58.86 7.12999 56.62C10.18 55.13 13.77 56.74 16.7 58.44C23.77 62.58 30.39 67.48 36.42 73.02Z" fill="#F3AC95"/>
<mask id="mask0_5_10" style="mask-type:luminance" maskUnits="userSpaceOnUse" x="3" y="9" width="162" height="194">
<path d="M36.42 73.02C31.63 61.21 27.41 49.16 23.78 36.94C22.1 31.29 20.9 24.27 25.25 20.3C27.76 18 31.53 17.53 34.86 18.26C38.18 18.99 41.17 20.78 44.05 22.58C55.64 29.8 66.8 37.74 77.42 46.32C73.87 38.13 71.17 29.56 69.38 20.82C68.71 17.57 68.36 13.69 70.79 11.43C73.49 8.91002 77.83 10.02 81.25 11.41C112.55 24.14 139.3 48.67 153.24 79.45C161.2 97.03 165.78 116.36 164.62 135.63C163.46 154.9 155.69 174.32 140.88 186.71C127.71 197.73 110.09 202.37 92.92 202.62C80.11 202.81 66.85 200.57 56.19 193.44C39.1 182.01 32.04 160.76 26.1 141.07C19.01 117.51 11.9 93.95 4.78999 70.39C3.31999 65.52 2.55999 58.86 7.12999 56.62C10.18 55.13 13.77 56.74 16.7 58.44C23.77 62.58 30.39 67.48 36.42 73.02Z" fill="white"/>
</mask>
<g mask="url(#mask0_5_10)">
<path d="M63.01 140.51C55.46 139.15 50.07 134.03 50.97 129.07C51.87 124.12 58.71 121.21 66.25 122.58C73.8 123.94 79.19 129.06 78.29 134.02C77.39 138.96 70.55 141.87 63.01 140.51Z" fill="#FFE4B8"/>
</g>
<mask id="mask1_5_10" style="mask-type:luminance" maskUnits="userSpaceOnUse" x="3" y="9" width="162" height="194">
<path d="M36.42 73.02C31.63 61.21 27.41 49.16 23.78 36.94C22.1 31.29 20.9 24.27 25.25 20.3C27.76 18 31.53 17.53 34.86 18.26C38.18 18.99 41.17 20.78 44.05 22.58C55.64 29.8 66.8 37.74 77.42 46.32C73.87 38.13 71.17 29.56 69.38 20.82C68.71 17.57 68.36 13.69 70.79 11.43C73.49 8.91002 77.83 10.02 81.25 11.41C112.55 24.14 139.3 48.67 153.24 79.45C161.2 97.03 165.78 116.36 164.62 135.63C163.46 154.9 155.69 174.32 140.88 186.71C127.71 197.73 110.09 202.37 92.92 202.62C80.11 202.81 66.85 200.57 56.19 193.44C39.1 182.01 32.04 160.76 26.1 141.07C19.01 117.51 11.9 93.95 4.78999 70.39C3.31999 65.52 2.55999 58.86 7.12999 56.62C10.18 55.13 13.77 56.74 16.7 58.44C23.77 62.58 30.39 67.48 36.42 73.02Z" fill="white"/>
</mask>
<g mask="url(#mask1_5_10)">
<path d="M159.48 116.24C153.01 120.36 145.58 120.27 142.88 116.02C140.18 111.77 143.22 105 149.69 100.87C156.16 96.75 163.59 96.84 166.29 101.09C168.99 105.34 165.94 112.12 159.48 116.24Z" fill="#FFE4B8"/>
</g>
<path d="M41.88 78.4C40.12 76.55 38.3 74.75 36.42 73.02" stroke="#53476D" stroke-width="3" stroke-miterlimit="10" stroke-linecap="round" stroke-linejoin="round"/>
<path d="M52.33 176.08C54.3 172.97 54.66 167.83 50.67 164.57C48.09 162.46 44.26 162.02 41.27 163.49C38.9 164.65 37.17 166.97 36.59 169.55C38.34 173.1 40.29 176.5 42.51 179.68C42.57 179.7 42.63 179.73 42.69 179.75C46.24 180.76 50.36 179.2 52.33 176.08Z" fill="#D9876B"/>
<path d="M93.38 24.12C92.56 21.06 91.39 18.09 89.91 15.28C87.07 13.89 84.18 12.59 81.25 11.4C77.83 10.01 73.49 8.90001 70.79 11.42C68.36 13.68 68.72 17.56 69.38 20.81C70.55 26.53 72.12 32.16 74.05 37.67C74.49 38.19 74.8 38.74 75.16 39.24C76 40.4 77.53 41.35 78.82 40.73C80.04 40.14 80.3 38.53 80.32 37.17C80.35 33.66 79.75 30.17 79.02 26.46C82.61 27.39 86.26 28.05 89.94 28.45C90.97 28.56 92.14 28.61 92.92 27.92C93.93 27.03 93.73 25.42 93.38 24.12Z" fill="#ADA4C0"/>
<path d="M27.03 78.54C27.81 77.97 27.5 76.75 27.1 75.88C25.95 73.37 24.66 70.92 23.13 67.8C24.08 68.55 25.08 69.33 26.27 69.52C27.46 69.72 28.88 69.1 29.14 67.92C29.22 67.54 29.17 67.16 29.05 66.8C25.12 63.75 20.99 60.96 16.7 58.45C13.77 56.74 10.18 55.14 7.12999 56.63C2.55999 58.86 3.31999 65.52 4.78999 70.4C6.29999 75.4 7.80999 80.39 9.30999 85.39C10.76 86.61 12.26 87.76 13.83 88.81C14.46 89.23 15.23 89.64 15.92 89.34C16.78 88.97 16.87 87.81 16.81 86.88C16.58 83.1 16.1 79.34 15.63 74.37C18.7 75.81 21.81 77.17 24.95 78.45C25.63 78.71 26.45 78.97 27.03 78.54Z" fill="#ADA4C0"/>
<path d="M61.22 183.83C59.32 185.58 59.14 188.87 60.84 190.82C62.54 192.77 65.83 193.03 67.82 191.38C69.81 189.73 70.36 186.26 68.22 184.05C66.42 182.18 63.12 182.08 61.22 183.83Z" fill="#D9876B"/>
<path d="M147.96 140.21C146.06 141.96 145.88 145.25 147.58 147.2C149.28 149.15 152.57 149.41 154.56 147.76C156.55 146.11 157.1 142.64 154.96 140.43C153.16 138.56 149.86 138.46 147.96 140.21Z" fill="#D9876B"/>
<path d="M79.05 172.26C79.91 170.12 79.82 166.94 76.77 164.98C74.6 163.59 71.53 163.81 69.59 165.51C67.65 167.21 67.02 170.23 68.12 172.56C69.1 174.65 71.38 176.05 73.69 175.99C75.98 175.92 78.18 174.4 79.05 172.26Z" fill="#D9876B"/>
<path d="M56.21 34.09C55.31 32.3 54.41 30.51 53.52 28.72C50.4 26.63 47.24 24.58 44.05 22.59C41.16 20.79 38.18 19.01 34.86 18.27C31.54 17.54 27.77 18.01 25.25 20.31C20.9 24.28 22.11 31.31 23.78 36.95C25.47 42.64 27.3 48.29 29.24 53.89C29.38 54.01 29.52 54.15 29.68 54.25C30.78 54.96 32.44 54.97 33.21 53.91C33.68 53.27 33.71 52.43 33.72 51.64C33.78 46.51 33.44 41.37 33.41 35.68L44.32 43.86C45.03 44.39 45.97 44.95 46.74 44.5C47.52 44.05 47.5 42.92 47.32 42.03C46.72 39.07 45.57 36.23 44.35 33.44L53.68 37C54.56 37.34 55.68 37.63 56.35 36.97C57.1 36.25 56.67 35.01 56.21 34.09Z" fill="#ADA4C0"/>
<path d="M85.09 52.7C82.57 50.54 80.01 48.41 77.43 46.32" stroke="#53476D" stroke-width="3" stroke-miterlimit="10" stroke-linecap="round" stroke-linejoin="round"/>
<path d="M129.85 188.76C120.52 195.8 108.47 199.14 96.84 197.91C92.86 197.49 88.65 196.38 86.08 193.31C83.85 190.64 83.28 186.85 83.93 183.43C84.58 180.01 86.32 176.89 88.29 174.02C97.16 161.14 111.51 152.18 126.98 149.87C133.01 148.97 140.08 149.44 143.87 154.22C147.44 158.73 146.63 165.33 144.42 170.63C141.95 176.54 138.38 182.32 129.85 188.76Z" fill="#FBC8B9"/>
<path opacity="0.3" d="M25.25 20.31C20.9 24.28 22.11 31.31 23.78 36.95C24.93 40.82 26.16 44.67 27.43 48.51C26.78 38.89 27.14 25.27 34.32 24.62C38.82 24.22 41.79 23.32 43.76 22.4C40.96 20.66 38.07 18.97 34.86 18.26C31.53 17.53 27.76 18.01 25.25 20.31Z" fill="#FFE4BA"/>
<path opacity="0.3" d="M70.79 11.43C68.36 13.69 68.72 17.57 69.38 20.82C70.02 23.95 70.78 27.06 71.66 30.14C71.32 23.35 72.75 13.34 83.8 12.47C82.95 12.11 82.11 11.75 81.26 11.4C77.84 10.01 73.5 8.91002 70.79 11.43Z" fill="#FFE4BA"/>
<path opacity="0.15" d="M114.37 187.52C71.17 195.45 45.85 177.21 35.18 166.56C40.05 177.29 46.51 186.95 56.21 193.43C66.86 200.56 80.12 202.8 92.94 202.61C110.12 202.36 127.73 197.72 140.9 186.7C155.71 174.31 163.48 154.89 164.64 135.62C165.77 116.8 161.42 97.93 153.8 80.69C157.12 116.56 156.75 179.74 114.37 187.52Z" fill="#53476D"/>
<path opacity="0.3" d="M8.14999 81.55C7.73999 72.43 9.22 61 18.87 59.76C18.15 59.32 17.43 58.88 16.7 58.45C13.77 56.74 10.18 55.14 7.12999 56.63C2.55999 58.86 3.31999 65.52 4.78999 70.4C5.90999 74.11 7.02999 77.83 8.14999 81.55Z" fill="#FFE4BA"/>
<path d="M36.42 73.02C31.63 61.21 27.41 49.16 23.78 36.94C22.1 31.29 20.9 24.27 25.25 20.3C27.76 18 31.53 17.53 34.86 18.26C38.18 18.99 41.17 20.78 44.05 22.58C55.64 29.8 66.8 37.74 77.42 46.32C73.87 38.13 71.17 29.56 69.38 20.82C68.71 17.57 68.36 13.69 70.79 11.43C73.49 8.91002 77.83 10.02 81.25 11.41C112.55 24.14 139.3 48.67 153.24 79.45C161.2 97.03 165.78 116.36 164.62 135.63C163.46 154.9 155.69 174.32 140.88 186.71C127.71 197.73 110.09 202.37 92.92 202.62C80.11 202.81 66.85 200.57 56.19 193.44C39.1 182.01 32.04 160.76 26.1 141.07C19.01 117.51 11.9 93.95 4.78999 70.39C3.31999 65.52 2.55999 58.86 7.12999 56.62C10.18 55.13 13.77 56.74 16.7 58.44C23.77 62.58 30.39 67.48 36.42 73.02Z" stroke="#53476D" stroke-width="3" stroke-miterlimit="10" stroke-linecap="round" stroke-linejoin="round"/>
<path d="M78.1386 129.26C87.1809 126.514 92.027 116.106 88.9626 106.012C85.8982 95.9183 76.0838 89.9609 67.0415 92.706C57.9992 95.4511 53.1531 105.859 56.2175 115.953C59.2819 126.047 69.0963 132.005 78.1386 129.26Z" fill="#53476D"/>
<path d="M82.9 104.75C83.4 100.43 80.3 96.52 75.98 96.02C71.66 95.52 67.75 98.62 67.25 102.94C66.75 107.26 69.85 111.17 74.17 111.67C78.5 112.17 82.4 109.07 82.9 104.75Z" fill="white"/>
<path d="M71.8 118.92C72.06 116.66 70.44 114.62 68.19 114.36C65.93 114.1 63.89 115.72 63.63 117.97C63.37 120.23 64.99 122.27 67.24 122.53C69.5 122.79 71.54 121.17 71.8 118.92Z" fill="white"/>
<path d="M122.44 101.41C125.8 111.41 135.78 117.08 144.73 114.08C153.69 111.07 158.23 100.53 154.87 90.53C151.51 80.53 141.53 74.86 132.58 77.86C123.62 80.86 119.08 91.41 122.44 101.41Z" fill="#53476D"/>
<path d="M136.04 95.25C133.13 92.02 133.38 87.04 136.61 84.13C139.84 81.22 144.82 81.47 147.73 84.7C150.64 87.93 150.39 92.91 147.16 95.82C143.93 98.73 138.95 98.48 136.04 95.25Z" fill="white"/>
<path d="M132.07 106.86C130.55 105.17 130.68 102.57 132.37 101.05C134.06 99.53 136.66 99.66 138.18 101.35C139.7 103.04 139.57 105.64 137.88 107.16C136.19 108.68 133.59 108.55 132.07 106.86Z" fill="white"/>
<path d="M108.18 105.02C123.45 101.79 137.24 130.5 115.4 138.9C93.55 147.29 89.43 108.99 108.18 105.02Z" fill="#53476D"/>
<path d="M126.44 126.84C112.59 124.2 102.11 131.04 98.89 133.49C101.91 138.85 107.49 141.93 115.4 138.89C122.14 136.3 125.48 131.77 126.44 126.84Z" fill="white"/>
<path d="M97.62 114.86C102.69 115.04 112.53 114.53 120.15 108.91C116.82 105.81 112.56 104.1 108.18 105.02C102.85 106.15 99.37 110.05 97.62 114.86Z" fill="white"/>
<path d="M108.18 105.02C123.45 101.79 137.24 130.5 115.4 138.9C93.55 147.29 89.43 108.99 108.18 105.02Z" stroke="#53476D" stroke-width="3" stroke-miterlimit="10" stroke-linecap="round" stroke-linejoin="round"/>
<path d="M101.54 142.49C101.54 142.49 114.87 150.96 126.43 138.42" stroke="#53476D" stroke-width="3" stroke-miterlimit="10" stroke-linecap="round" stroke-linejoin="round"/>
<path d="M56.53 150.99C50.37 165.21 45.82 180.12 42.99 195.36C42.63 197.29 42.54 199.77 44.27 200.7C46.38 201.83 48.61 199.48 49.84 197.43C57.47 184.68 64.45 171.55 70.75 158.1L56.53 150.99Z" fill="#F3AC95"/>
<path d="M56.53 150.99C50.37 165.21 45.82 180.12 42.99 195.36C42.63 197.29 42.54 199.77 44.27 200.7C46.38 201.83 48.61 199.48 49.84 197.43C57.47 184.68 64.45 171.55 70.75 158.1" stroke="#53476D" stroke-width="3" stroke-miterlimit="10" stroke-linecap="round" stroke-linejoin="round"/>
</svg>
